<svg id="Ebene_1" data-name="Ebene 1" xmlns="http://www.w3.org/2000/svg" viewBox="0 0 395.9 477.03"><defs><style>.cls-1,.cls-7{fill:none;}.cls-1{stroke:#4a7140;stroke-dasharray:4 4 4 4 4 4;}.cls-1,.cls-4,.cls-7{stroke-miterlimit:10;}.cls-2{fill:#292b29;}.cls-3{fill:#fff;}.cls-4,.cls-5{fill:#e58f4d;}.cls-4{stroke:#e58f4d;}.cls-6{fill:#959b95;}.cls-7{stroke:#292b29;stroke-width:5px;}.cls-8{fill:#676b67;}.cls-9{fill:#dfe5df;}.cls-10{fill:#2a2d2a;}.cls-11{fill:#ced6ce;}.cls-12{fill:#a3afa3;}.cls-13{fill:#3b3d3b;}.cls-14{fill:#a5ada5;}.cls-15{fill:#4a4c4a;}.cls-16{fill:#4a7140;}</style></defs><path class="cls-1" d="M820.7,462.2c10.1-.82,32.47-4.15,45-21,21.4-28.79,4.53-84.31-26-101-51.38-28.06-119.5,68.05-175,39-41.76-21.85-31.28-86.59-79-103-34.41-11.82-65.73,12.93-76,0-6.15-7.73-3.26-27.08,34-77" transform="translate(-479.9 -143.7)"/><path class="cls-2" d="M488.2,416.7c-3.92,11.75-5.12,20.95-6.5,31.5a231.33,231.33,0,0,0,.5,61.5c3.56,25.68,6,43.27,17.5,62.5,6.76,11.32,28.31,47.39,65.5,48.5,21.41.64,42.29-10.48,54.5-25.5,2.79-3.43,6-8.14,11-20a238.44,238.44,0,0,0,17-66c2.87-26.44,6.65-61.28-6-103-5.76-19-12.12-39-31-54-5.34-4.24-20.09-16-40-15-12.9.64-21.78,6.3-32,13C503.55,373.24,490.84,408.77,488.2,416.7Z" transform="translate(-479.9 -143.7)"/><path class="cls-3" d="M491.7,488.2a174,174,0,0,1,8-59c4-12.75,8.53-21.93,13-31,11.36-23.05,17-34.58,27-42,14.15-10.54,36.66-16.11,56-8,17,7.13,24.69,21.95,32,36,12.21,23.49,14.07,44.09,16,68,3.53,44-3.79,74.86-9,96-2.46,10-6.09,22.53-15,36-6.71,10.14-14.23,21.51-28,26-17.31,5.65-33.69-3.1-41-7-20.54-11-30-28.42-39-45A166.5,166.5,0,0,1,491.7,488.2Z" transform="translate(-479.9 -143.7)"/><path class="cls-2" d="M500.7,498.2a178.89,178.89,0,0,1,0-24,201.48,201.48,0,0,1,7-41,207.66,207.66,0,0,1,14-39c8.87-18.46,13.3-27.69,23-34,17.53-11.4,37.53-6.39,39-6,20.86,5.57,31,24.12,38,37,11.13,20.43,12.86,38.22,15,63a275.75,275.75,0,0,1-7,89c-6.47,26.25-13.58,38.16-23,47-5.1,4.79-13.28,12.47-25,14-25.57,3.35-47.16-25.27-56-37C504.19,538.68,501.45,508.08,500.7,498.2Z" transform="translate(-479.9 -143.7)"/><path class="cls-4" d="M507.7,485.2l47-19-21-83a220.45,220.45,0,0,0-26,102Z" transform="translate(-479.9 -143.7)"/><path class="cls-5" d="M508.7,506.2l51-25q-8.51,49-17,98a102.52,102.52,0,0,1-34-73Z" transform="translate(-479.9 -143.7)"/><path class="cls-5" d="M556.7,588.2q7-51,14-102,19,36.51,38,73c-4.39,15.79-15.79,27.83-30,31A37.7,37.7,0,0,1,556.7,588.2Z" transform="translate(-479.9 -143.7)"/><path class="cls-5" d="M568.7,449.2l-18-81c5.08-2,15.79-5.27,28-2,17.9,4.8,31.57,21.7,35,43Z" transform="translate(-479.9 -143.7)"/><path class="cls-5" d="M615.7,532.2q-15.51-24.5-31-49a9.56,9.56,0,0,0,3-3,10.41,10.41,0,0,0,1-8l35,6a135.83,135.83,0,0,1-8,54Z" transform="translate(-479.9 -143.7)"/><path class="cls-5" d="M592.7,462.2c4.49,1.06,9.16,2.07,14,3,6.22,1.21,12.23,2.19,18,3q-2-22.5-4-45c-5.52,2.61-15,7.89-22,17-4.54,5.87-5.63,10.15-6,12A25.55,25.55,0,0,0,592.7,462.2Z" transform="translate(-479.9 -143.7)"/><path class="cls-6" d="M540.2,588.7c12.81,7.8,19.31,11.72,24,13,3.43.95,16.77,4.4,30-2a41.18,41.18,0,0,0,11-8c4.17-4,7.78-10,15-22a61.75,61.75,0,0,0,7-16,55.22,55.22,0,0,1-5,27.45,60.94,60.94,0,0,1-11,15.55c-4.05,4.37-7.4,8-13,11-12,6.47-23.9,4.55-27,4-3.93-.69-6.62-1.79-12-4,0,0-16.53-6.77-26-17.14l-1-1.18a85.17,85.17,0,0,1-8-10.68C528,581.15,533.5,584.63,540.2,588.7Z" transform="translate(-479.9 -143.7)"/><path class="cls-7" d="M734.2,395.7c-.61,28.19-1.25,59.69,15,100,7.93,19.7,19.53,48.45,37,49,5.85.19,10.33-2.86,12-4,15.43-10.51,14.53-36.45,13-69-.85-17.86-1.59-33.71-7-56-3.53-14.52-18.42-76.1-39-76-12.8.07-23.69,24.1-25,27C734.81,378.58,734.34,389.15,734.2,395.7Z" transform="translate(-479.9 -143.7)"/><path class="cls-8" d="M481.2,453.7a121.3,121.3,0,0,1,5-31,132,132,0,0,1,10-24,117.79,117.79,0,0,1,11-18c2.86-3.81,13.16-17.05,15-16C524.23,365.88,516.61,385.15,481.2,453.7Z" transform="translate(-479.9 -143.7)"/><path d="M523.2,601.7c10.24,2.15,18.44,4.38,24,6,13.35,3.91,17.8,6.2,27,7,12.23,1.08,19.88-1.59,20-1,.18.94-18.09,10-39,6C538.57,616.52,527.75,606.51,523.2,601.7Z" transform="translate(-479.9 -143.7)"/><path class="cls-9" d="M655.2,447.7q-11-63-22-126-5.51,21-11,42-2.51-2.49-5-5-4-4-8-8l20-41q-.51-13.5-1-27h9v7l93-17q2,7,4,14l-80,16-10,2,16.5,127.5q36.24-66.75,72.5-133.5,3.49,6.51,7,13L671.7,429.2l-7,16h19l28,10q-1,3.51-2,7l-18.5.5-28.5,1.5Z" transform="translate(-479.9 -143.7)"/><path class="cls-9" d="M716.2,249.7q33.49,97.5,67,195a5.43,5.43,0,0,0,6,1c3-1.67,2.71-6.83,1-8-1.19-.8-2.57.62-4,0-2.84-1.23-2.12-8.84-2-9.89a.8.8,0,0,1,0-.11c.35-3.2-17.07-56.28-59-178Z" transform="translate(-479.9 -143.7)"/><path class="cls-9" d="M722.2,250.7c10.32,1.64,16.37-.62,20-3,3.9-2.55,5.21-5.39,11-12a130.25,130.25,0,0,1,12-12l-3-5c-.93,1.25-2.27,3-4,5-1.44,1.66-6.89,7.94-13,12-8.4,5.59-17.8,6.84-24,7Q721.7,246.71,722.2,250.7Z" transform="translate(-479.9 -143.7)"/><path class="cls-10" d="M775.2,221.7c3.39-.93,7.93-.95,17-1,4.64,0,6.24.12,7-1,1.68-2.46-2.68-8.19-5-11-2.28.27-4.62.6-7,1a141.47,141.47,0,0,0-26,7c.4,3.21,1.39,6.9,4,8S769.5,223.26,775.2,221.7Z" transform="translate(-479.9 -143.7)"/><path class="cls-3" d="M634.29,213.68" transform="translate(-479.9 -143.7)"/><path class="cls-11" d="M633.2,322.7a33.16,33.16,0,0,1,7,8c5,8.07,4.51,15.95,5,23,1.21,17.41,2.14,10.21,5,40,1.18,12.37,1.48,18.38,4,28,1.18,4.53,5.31,8.61,5,15a21.23,21.23,0,0,1-4,11Q644.19,385.21,633.2,322.7Z" transform="translate(-479.9 -143.7)"/><path class="cls-12" d="M650.2,419.7c1.48,2.58,3.49,6,6,10,3.63,5.8,4.69,7.05,6,7,2.3-.08,2.84-4.09,7-9a29.51,29.51,0,0,1,7-6l-11,23c-.3.09-5.25,1.42-9-2a9.58,9.58,0,0,1-3-7Z" transform="translate(-479.9 -143.7)"/><path class="cls-13" d="M591.2,206.7a54.84,54.84,0,0,1,12,2,53.23,53.23,0,0,1,8,3,66.86,66.86,0,0,1,7,4c3.21,1.82,8.78,2.89,19-1a76.16,76.16,0,0,1-17-6c-2.27-1.12-3.17-1.72-6-3-7-3.16-10.82-4.82-15-4A14.21,14.21,0,0,0,591.2,206.7Z" transform="translate(-479.9 -143.7)"/><path d="M621.2,236.7a16.05,16.05,0,0,0,4,0,16.57,16.57,0,0,0,4-1l-3,35Q623.69,253.71,621.2,236.7Z" transform="translate(-479.9 -143.7)"/><path d="M565.2,245.7" transform="translate(-479.9 -143.7)"/><path class="cls-14" d="M660.7,452.2l24.5-2.5,25,10c-.34.67-.67,1.34-1,2l-23.5-9.5-24,2h0S661.48,453.8,660.7,452.2Z" transform="translate(-479.9 -143.7)"/><path class="cls-9" d="M530.2,264.7" transform="translate(-479.9 -143.7)"/><path class="cls-9" d="M722.2,250.7c-13.71,3-21.25.35-25.66-2.85-3.29-2.38-4.58-4.68-11-12a130.25,130.25,0,0,0-12-12l3-5c.92,1.25,2.27,3,4,5a74.22,74.22,0,0,0,13,12c10.41,7.06,23.9,7,28.66,6.85Z" transform="translate(-479.9 -143.7)"/><path class="cls-15" d="M666.2,224c-3.4-.93-7.93-.95-17-1-4.64,0-6.24.12-7-1-1.68-2.46,2.68-8.19,5-11q3.42.41,7,1a141.47,141.47,0,0,1,26,7c-.41,3.2-1.39,6.9-4,8S671.9,225.54,666.2,224Z" transform="translate(-479.9 -143.7)"/><path class="cls-10" d="M621.3,236.67a156.58,156.58,0,0,1-17-2.12c-9.84-1.79-12.72-3.3-15-5.12-1.77-1.43-5.49-4.43-5.94-9-.52-5.35,3.7-9.55,7.1-12.95,2.59-2.58,5.11-5.09,9-5.93,1.17-.25,4.18-.72,13,3.1,9.9,4.29,11.61,7.27,18.93,9.14,1.7.43,4.49.65,10,1.07,18.21,1.39,23.69.51,26,4.19,1.28,2.08,1.3,5.24-.06,7s-4.1,1.92-5,2c-4.63.24-13,2-28,6.8l3.51,66-9.89-15.07Q624.63,261.2,621.3,236.67Z" transform="translate(-479.9 -143.7)"/><path class="cls-16" d="M545.31,143.7a20.92,20.92,0,0,0-20.89,20.9,20.63,20.63,0,0,0,4.21,12.53l.66.86,16,18.89,16-18.9.65-.85h0a20.7,20.7,0,0,0,4.2-12.53A20.92,20.92,0,0,0,545.31,143.7Zm0,28.49a7.6,7.6,0,1,1,7.6-7.59A7.6,7.6,0,0,1,545.31,172.19Z" transform="translate(-479.9 -143.7)"/></svg>