<svg width="16" height="24" viewBox="0 0 16 24" fill="none" xmlns="http://www.w3.org/2000/svg">
<g clip-path="url(#clip0)">
<path d="M7.30889 -0.000350356C7.15923 0.0365958 7.00957 0.0710372 6.86053 0.110488C6.11284 0.310248 5.48914 0.706637 5.00696 1.31155C4.90551 1.43867 4.81534 1.47499 4.65691 1.44994C2.91668 1.17567 1.3712 2.5145 1.40689 4.27414C1.42505 5.18026 1.81393 5.91166 2.53031 6.46711C2.59794 6.51971 2.6687 6.5673 2.75199 6.62742C2.72256 6.67313 2.69688 6.71759 2.66682 6.75892C1.82019 7.9005 1.39938 9.18359 1.40376 10.6038C1.40752 11.9176 1.36995 13.2276 1.07876 14.517C0.914696 15.2434 0.693018 15.9516 0.317921 16.5966C-0.293883 17.6468 0.0530357 18.5811 0.743115 19.2474C1.27602 19.7615 1.91913 20.0921 2.60357 20.3482C2.76013 20.4065 2.81022 20.4816 2.81649 20.6482C2.90478 23.0015 5.31129 24.5989 7.52368 23.7855C7.64704 23.7404 7.81675 23.7404 7.94011 23.7861C10.1506 24.5989 12.5621 22.9971 12.6461 20.6469C12.6523 20.4791 12.7043 20.4046 12.8596 20.3464C13.5597 20.0858 14.2147 19.7446 14.7532 19.2129C15.4214 18.5535 15.7333 17.6324 15.1559 16.6154C14.5366 15.5246 14.266 14.3197 14.1602 13.0824C14.0926 12.2896 14.065 11.4918 14.065 10.6959C14.065 9.2243 13.653 7.89737 12.7675 6.7201C12.7487 6.69505 12.7337 6.66812 12.7168 6.6412C12.8909 6.49466 13.0725 6.36066 13.2316 6.2041C14.0982 5.35058 14.308 4.02177 13.7532 2.94094C13.199 1.86074 12.0123 1.24956 10.8294 1.44681C10.6522 1.47624 10.5545 1.43366 10.4399 1.29339C9.87947 0.608322 9.1562 0.191895 8.28077 0.0434841C8.23693 0.0359696 8.1956 0.0140524 8.15302 -0.000976562C7.87123 -0.000350356 7.59006 -0.000350356 7.30889 -0.000350356ZM3.11644 19.042C2.59731 18.8384 2.09885 18.6049 1.6962 18.2091C1.3593 17.8778 1.33112 17.6831 1.55217 17.2767C1.96171 16.5246 2.24288 15.7256 2.43513 14.894C2.75261 13.5232 2.81335 12.1293 2.8121 10.7291C2.81148 10.3947 2.82275 10.0546 2.88349 9.72714C3.37882 7.06576 5.66197 5.37939 8.36029 5.6687C10.5113 5.89914 12.3981 7.76398 12.5997 9.91125C12.6811 10.7798 12.6517 11.6584 12.7012 12.5307C12.797 14.2296 13.1238 15.8727 13.9655 17.3781C14.0913 17.6029 14.0838 17.8108 13.931 18.0106C13.5202 18.5473 12.9322 18.8028 12.3461 19.0426C11.7155 17.983 11.1025 16.9523 10.4731 15.8934C10.6478 15.7293 10.8225 15.574 10.9872 15.4081C11.3335 15.0593 11.3379 14.661 10.9954 14.316C10.0918 13.408 9.18626 12.5025 8.27889 11.5989C7.93259 11.2538 7.53307 11.252 7.18616 11.597C6.27816 12.5 5.37204 13.4055 4.46904 14.3141C4.12526 14.6598 4.12776 15.058 4.47468 15.4062C4.64376 15.5759 4.83224 15.7262 5.00069 15.8752C4.3532 16.9623 3.7439 17.9874 3.11644 19.042ZM9.44739 16.9473C9.47494 16.9849 9.48997 17.003 9.50187 17.0231C9.9878 17.8415 10.4806 18.6556 10.954 19.4816C11.0799 19.7014 11.1983 19.95 11.2258 20.1961C11.3191 21.0183 11.0398 21.7109 10.356 22.1949C9.68347 22.6708 8.95018 22.7391 8.21126 22.3577C7.8706 22.1818 7.57754 22.1868 7.24001 22.3627C6.43095 22.7842 5.47223 22.6101 4.82473 21.9663C4.29496 21.4403 3.95556 20.4002 4.46216 19.5517C4.96625 18.7076 5.46346 17.8597 5.96443 17.0143C5.97507 16.9961 5.99887 16.9861 6.03456 16.9579C6.34704 17.2748 6.67204 17.5804 6.96824 17.911C7.50176 18.5066 7.91819 18.5523 8.49931 17.9029C8.79488 17.5735 9.12239 17.2729 9.44739 16.9473ZM7.73283 4.21527C6.3533 4.23093 5.10214 4.62857 3.99438 5.4489C3.85161 5.5541 3.74077 5.55473 3.59486 5.48271C2.91981 5.15145 2.62361 4.33926 2.93108 3.65043C3.24606 2.9447 4.03634 2.63285 4.75334 2.93155C5.30315 3.16011 5.57179 3.04865 5.87363 2.54518C6.0308 2.28342 6.23307 2.0248 6.47291 1.83944C7.51429 1.03226 8.98775 1.38169 9.60269 2.56522C9.7248 2.80067 9.87759 3.00857 10.1462 3.02798C10.3372 3.04176 10.5451 2.98603 10.728 2.91589C11.4375 2.64287 12.2202 2.95534 12.5302 3.65231C12.8364 4.34114 12.539 5.15333 11.8639 5.48397C11.7168 5.55598 11.6065 5.55285 11.465 5.44765C10.3566 4.63045 9.10611 4.2303 7.73283 4.21527ZM9.47557 14.8483C8.89006 15.4288 8.29016 16.0236 7.72407 16.5854C7.14984 16.0193 6.55181 15.4294 5.97945 14.8645C6.56371 14.2784 7.1561 13.6829 7.73283 13.1043C8.31208 13.6841 8.90572 14.2784 9.47557 14.8483Z" fill="#4A7140"/>
<path d="M9.84084 10.647C9.84459 11.0264 10.1646 11.3433 10.5441 11.3427C10.9329 11.3427 11.2542 11.012 11.2448 10.6219C11.2354 10.2424 10.911 9.93121 10.5309 9.9381C10.1521 9.94499 9.83708 10.2681 9.84084 10.647Z" fill="#4A7140"/>
<path d="M4.92565 9.93802C4.54617 9.93426 4.22368 10.248 4.21616 10.6275C4.20865 11.0157 4.53553 11.3451 4.92377 11.342C5.30388 11.3395 5.61949 11.0214 5.62012 10.64C5.62074 10.2599 5.30639 9.94178 4.92565 9.93802Z" fill="#4A7140"/>
</g>
<defs>
<clipPath id="clip0">
<rect width="15.4573" height="24" fill="white" transform="matrix(-1 0 0 1 15.4573 0)"/>
</clipPath>
</defs>
</svg>
