<svg xmlns="http://www.w3.org/2000/svg" viewBox="0 0 679.37 584.6"><defs><style>.cls-1{fill:#d0d0d0;}.cls-1,.cls-2{opacity:0.8;}.cls-2{fill:#efefef;}.cls-3{fill:#999;}.cls-3,.cls-6{opacity:0.6;}.cls-4{fill:#565656;}.cls-5{fill:#8b8b8b;}.cls-6{fill:#afafaf;}.cls-17,.cls-7{fill:none;}.cls-7{stroke:#fff;}.cls-13,.cls-17,.cls-29,.cls-30,.cls-7{stroke-miterlimit:10;}.cls-8{fill:#151515;}.cls-9{fill:#171717;}.cls-10{fill:#e7e7e7;}.cls-11{opacity:0;}.cls-12,.cls-13{fill:#736357;}.cls-13{stroke:#736357;}.cls-14{opacity:0.4;}.cls-15{fill:#404040;}.cls-16{opacity:0.1;}.cls-17{stroke:#151515;stroke-width:11px;}.cls-18{fill:#4a7140;}.cls-19{font-size:28px;font-family:AirbnbCerealApp-Book, Airbnb Cereal App;}.cls-19,.cls-25{fill:#fff;}.cls-20{fill:#846d65;}.cls-21{fill:#fbcbbf;}.cls-22{fill:#c1917d;}.cls-23{fill:#cba79b;}.cls-24{fill:#79645f;}.cls-26{fill:#705b56;}.cls-27,.cls-28,.cls-29,.cls-30{fill:#e6e6e6;}.cls-27{opacity:0.7;}.cls-29,.cls-30{stroke:#e6e6e6;}.cls-29{opacity:0.3;}</style></defs><g id="Ebene_3" data-name="Ebene 3"><rect class="cls-1" x="411" y="7" width="200" height="330"/><rect class="cls-2" x="283.6" y="7" width="200" height="330"/><rect class="cls-1" x="158.86" y="7" width="200" height="330"/><rect class="cls-3" x="4" y="7" width="209" height="330"/><path class="cls-4" d="M811,311a46.56,46.56,0,0,1-8,4,54.15,54.15,0,0,1,1-17c1.51-6.7,3.24-8,5-16,1.4-6.3.56-6.58,2-15,.7-4.11.89-3.95,4-17,5.63-23.59,2.34-12.82,4-19,1.33-5,2.35-7.77,1-11-1.27-3-3.34-3.36-5-7-1.19-2.61-1.93-6.41-1-9,2.29-6.36,16.46-10.46,24-6,14.93,8.83,3.73,51.13-1,69C830,293.61,821,304.72,811,311Z" transform="translate(-480 -81)"/><path class="cls-5" d="M774,418c-.78-3.4-1.86-8.3-3-14.22-2.74-14.24-6-31-6-45.49,0-10.82,1.74-28.06,12-49.29" transform="translate(-480 -81)"/><path class="cls-5" d="M764,406.07a82.23,82.23,0,0,0,3.68,7.53A35.81,35.81,0,0,0,771,418H875a21.22,21.22,0,0,0,4-2.28,49.32,49.32,0,0,0,4-3.68c1-1,2-2,3-3-3.59-4.13-9.49-10.84-17-18.9-32.5-34.88-49.75-46.46-56-65.65-2.27-7-5.09-13.8-7-20.89-1.57-5.82-2.46-10.36-6-15.92-1.4-2.2-1.35-1.62-6-7.95-4.11-5.59-6.2-8.46-8-11.94a73.24,73.24,0,0,1-4-9.95c-2.32-6.52-3.48-9.78-4-13.92-.74-5.87.44-6.72-1-9-3-4.68-10.79-4.91-13-5s-4.17.29-8,1c-4.16.77-5.22,1.37-6,2-.18.15-3.5,2.88-3,6s4.23,3.71,4,6c-.19,1.82-2.75,2.88-3,3-2.94,1.18-5.68-.57-6,0-.44.78,4.67,4.33,8,7h0a35.38,35.38,0,0,1,12,11.94c5.1,8.58-9.26,27.47-12,50.73-2,16.61,4.7,12.73,8,50.73C758.94,379.07,757.76,391.23,764,406.07Z" transform="translate(-480 -81)"/><path class="cls-4" d="M849.5,235.5a87.5,87.5,0,0,0,6-13c4.55-12.27,7.4-20,5-29a34.3,34.3,0,0,0-7-13c-2.3-2.71-4.29-4.2-8-7-6.48-4.88-9.79-7.37-14-7-2.84.25-5.56,1.75-6,1-.23-.39.32-1.12,1-2,1.73-2.27,3-2.44,4-4a5.89,5.89,0,0,0,1-4c-.59-3.66-5.51-4.88-6-5a2.75,2.75,0,0,0-2,0c-1.43.78-.66,3.18-2,4s-2.76-.8-4,0c-.84.54-.93,1.76-1,3-.22,3.7,1.36,4.5,1,7-.24,1.68-1.16,2.79-3,5s-2.4,2-4,4a12.27,12.27,0,0,0-3,6c-.24,1.73.25,1.86,0,5-.12,1.55-.29,2.09,0,3,.47,1.48,1.41,1.67,2,3,.44,1,.41,2,0,4-1,4.93-2.1,5.62-2,7,.33,4.44,12.32,3,18,10,3.82,4.68.73,8.18,4,22,1.71,7.23,3.42,14.43,7,15C840.63,251.16,845.41,242.72,849.5,235.5Z" transform="translate(-480 -81)"/><path class="cls-6" d="M835,254c5.2,1.92,14.8-5.38,15-12,.17-5.63-6.59-6.93-13-19-1.86-3.51-5.87-11.05-3-15,1.45-2,3.63-1.66,7-3,1.34-.53,10.63-4.67,12-12,.73-3.92-.86-8.5-3-9-2-.46-3.78,2.64-5,2-1.49-.78,1-5.46-1-8-1.88-2.33-7.2-2.33-10,0-2,1.66-1.26,3.3-4,7-1.11,1.5-3.27,4.42-5,4-1.25-.3-1.27-2.1-3-6s-2.83-6.25-5-7c-2.89-1-6.34,1.3-8,3a8.37,8.37,0,0,0-2,3c-1.26,3.34.12,6.81,1,9,1.18,3,2,3.24,2,5-.06,1.91-1.16,2.25-2,5-.68,2.22-1,5.47,0,6s2.68-2.74,5-3c4.76-.53,9.14,12.46,11,15C835.51,234.72,828,251.42,835,254Z" transform="translate(-480 -81)"/><path class="cls-5" d="M855,337c-5.63-12.75-11.42-25.88-10-43,1.64-19.8,11-21.33,10-39-.94-17.17-10.42-28.06-4-40,1-1.95,4.57-3.1,6-7,1.14-3.09,0-5.08,0-9a26.26,26.26,0,0,1,3-12,99.82,99.82,0,0,1,5,23,89.41,89.41,0,0,0,2,14,101.15,101.15,0,0,0,3,10c4.12,12.66,3.11,12.68,8,29a85.75,85.75,0,0,1,3,12c.91,5.55.42,6.42,1,10,1.6,9.83,7.56,16.91,11,21,4.16,4.94,4.86,4.14,10,10,2,2.23,7.07,8.07,10,14,6.06,12.27,3,25.38,1,34a75,75,0,0,1-14,29C886.75,382.93,867.32,364.92,855,337Z" transform="translate(-480 -81)"/><path class="cls-4" d="M803,313.73c-2.75,7.2-2.22,14.56-2,17.2.53,6.45,2.4,11.28,5,17.2,5.39,12.25,8.77,20.16,15,29.34,14.83,21.85,34.59,34.93,44,40.53h13a71.38,71.38,0,0,0,6-4.11c12.7-9.67,19.89-21.9,24-31.36a83.61,83.61,0,0,1-15-11.13c-4.67-4.35-10-4.65-24-37.44-9.13-21.32-7.92-25.31-7-27.31,4.19-9.11,16.27-7.24,20-17.2,1.53-4.09.35-9.14-2-19.23A136.54,136.54,0,0,0,874,251a66.69,66.69,0,0,0-27,14.16c-10.77,9.52-8.55,14.35-21,26.31C814.06,303,807,303.36,803,313.73Z" transform="translate(-480 -81)"/><path class="cls-7" d="M994,298.5c1-.08,1.39-4.59,2-12,2-24.67,1.75-23.66,2-25,2.28-13.44,6.86-12.76,9.91-29a38.08,38.08,0,0,0-1-19c-.73-2.18-2.58-7.52-6-8-2.19-.31-3.32,1.67-5,1-2.28-.94-2.92-6-2-10s2.64-3.91,3-7c.45-4.16-2.6-5-3-10a16.32,16.32,0,0,1,3-10c2.58-3.86,4.35-3,6-6,3-5.52-1.61-12.18,1-14,1.44-1,3.64.47,5-1,1-1.07.23-2.33,1-3,1.6-1.42,8.26,1.22,8.92,5,.76,4.38-6.8,8.75-6,10,.52.77,3.22-1.07,6.94-1,3.19.06,5.69,1.56,8.92,4,8.2,6.18,12.29,9.27,15.86,15,4.57,7.31,2.85,10.22,8.93,39,.78,3.69,1.23,5.86,2,9,4.15,17.5,7.42,23.94,9.91,34a105.45,105.45,0,0,1,3,28c1.38,1.37,3.46,3.45,5.94,6,13.67,14,20.5,21.07,23.8,27,8.11,14.59,1.88,32.74-2,44-9.45,27.56-30.24,42.68-36.68,47-36.18,24.29-83.7,19.53-112,1-5.39-3.53-24.43-16-26.77-34-.62-4.82-1.25-9.68,1-15,3.27-7.77,10-10.15,9.91-17,0-2.41-.86-2.44-2-7a46.49,46.49,0,0,1-1-15c1.21-22.3-7-31.91,0-43,1.86-3,4-4.73,5-9,1.33-5.86-1.41-8,0-14,1.37-5.77,4.57-6.59,4-10-.93-5.31-9.43-7.63-8.92-9s7,1.43,8.92-1-3.76-7.59-2-12c2.16-5.39,13.64-5.05,14.87-5,2.62.1,10.57.42,14.87,6,2.78,3.62,1.6,6.28,3,14,1.66,9.34,5.26,16,7.93,21,5.38,10,7.82,9.15,11.9,18C992.37,291,992.63,298.61,994,298.5Z" transform="translate(-480 -81)"/><path class="cls-8" d="M813.5,297.5c2,3.53,4.66,5.36,10,9,10.82,7.38,29.25,15.39,34,10,3.84-4.35-5.44-12.7-3-28,1.15-7.22,4.1-10.86,6-15,4.12-9,5.23-24.3-10-52-2.9,1.44-6.59,3.91-8,8-2.13,6.19,2.48,11.78,0,14-1.88,1.68-6.78.51-8-2-1.42-2.91,3.08-5.64,2-10-.8-3.24-3.61-3.08-5-7-1-2.93,0-4.57,0-8,0-3.22-.18-9.91-4-12-3.5-1.91-10.21,0-11,4-.55,2.81,3.38,4.73,6,8,4.09,5.09,4.6,12.95-4,44C812.5,282.19,809.11,289.69,813.5,297.5Z" transform="translate(-480 -81)"/><path class="cls-8" d="M807,418c-.55-11.37-.84-21-1-28.19-.37-16.24-.32-30,4-31.12,1.79-.46,2.83,1.58,5,1,4.57-1.27,4.24-11.43,7-11.67,2-.17,2.53,5.12,6,5.83s5.59-4.34,10-3.89a7.71,7.71,0,0,1,6,4.87c1.13,3.11-1.06,5.09-3,10.69-.8,2.32-4.73,13.62,0,18.47,1.48,1.52,2.35.91,6,2.92,4.68,2.58,9,7.78,9,7.78,3.42,4.25,10.83,12.32,21,23.33Z" transform="translate(-480 -81)"/><path class="cls-9" d="M782,418c3.76-9.79,2.69-15.95,1-19.78-2.69-6.1-8.22-10.28-9-18.79-.72-7.8,5.39-8.89,7-18.79,1.66-10.18-2.85-21-9-27.69-7.41-8.11-17.13-6.95-18-12.86-.47-3.2,2.18-3.78,4-10.88,1.73-6.73,0-8.88,2-12.86,1.21-2.44,3.79-5.57,10-7.91-2.27-5.69-4.26-12.19-2-13.85,2.56-1.87,8.69,3.87,11,2,1.83-1.5-.18-6.5-3-13.84-6.23-16.25-9.1-25-10-24.73-1.06.33,2.88,12.47,0,13.85-2.19,1-6.94-4.8-8-4s4,6.91,2,9.89c-1,1.52-2.8.7-6,2a15.51,15.51,0,0,0-9,10.88c-.77,4,1.4,4.36,1,8.9-.47,5.27-3.54,6.46-6,12.86a31.6,31.6,0,0,0-2,11.86c0,8.69,3.46,9,4,17.81.44,7.2-1.82,8-1,16.81.27,2.94.66,4.26,1,8.9.41,5.61.62,8.41,0,10.88-1.35,5.37-4.58,6-7,10.88-2.69,5.35-1.83,10.68-1,15.82,2.86,17.7,20.15,30.57,23,32.64Z" transform="translate(-480 -81)"/><path class="cls-10" d="M768,308c2.11-3.66,3.84-6.66,7-9s7.23-3,15-4a123.49,123.49,0,0,1,13-1,32.1,32.1,0,0,0-20-6c-2,.1-13.49.69-20,9-1.91,2.43-2.94,5.62-5,12-2.33,7.2-2.26,9.57-4,16-3,11.19-5.09,10.88-7,19-2.78,11.81-.67,22,0,22s-.11-8.58,4-20c.57-1.59.22-.4,5-11,4.57-10.12,6.85-15.18,8-18C765.92,312.31,766.37,310.83,768,308Z" transform="translate(-480 -81)"/><path class="cls-10" d="M824,203c4.07-2.36,6.71-2.26,7-4,.26-1.53-1.5-3.22-3-4-1.17-.61-2.92-1-10,1-4.63,1.32-6.94,2-8,3-4.17,4-2.32,11.73-2,13,.68-.25,1.72-.62,3-1,2-.61,3.46-.87,4-1C818.78,209.12,819.07,205.86,824,203Z" transform="translate(-480 -81)"/><path class="cls-10" d="M834,188a4.8,4.8,0,0,0,5,1c2.49-1,3.35-3.87,3-6,0-.33-.58-3.26-3-4-2.08-.64-4.07.81-5,2C832.55,182.85,832.06,186.09,834,188Z" transform="translate(-480 -81)"/><path class="cls-4" d="M836,184c0,1.16,1.19,2.21,2,2s1-1.3,1-2-.29-1.82-1-2S836,182.84,836,184Z" transform="translate(-480 -81)"/><path class="cls-8" d="M888,373" transform="translate(-480 -81)"/><path class="cls-5" d="M910,395" transform="translate(-480 -81)"/><path class="cls-4" d="M932.92,386c-1.42-.46-3.45-2.61-7.5-6.93a71.58,71.58,0,0,1-6.47-7.9l5.07.6c.29-4.82.5-10-2.09-14.09-2.32-3.65-6.53-5.79-8.74-9.49-3.35-5.61-1.2-12.87-2.79-19.21-1.85-7.37-8.74-13.51-7.84-21.06.31-2.62,1.56-5,2.28-7.56s.83-5.53-.88-7.54c-1.42-1.66-4.06-2.75-4-4.94.09-2,2.57-3.18,2.85-5.16s-1.86-4.63-.27-6c.92-.79,2.3-.35,3.46,0a15.27,15.27,0,0,0,17-6.82c1-1.72,1.67-3.69,3.11-5.06s4-1.86,5.29-.32c.9,1.09.74,2.67.69,4.09-.31,9.23,6.13,17.62,14.06,22.37s17.18,6.58,26.21,8.52,18.27,4.19,25.78,9.57a7.7,7.7,0,0,1,3.08,3.54c.81,2.48-1.11,5-1.46,5.44a10.25,10.25,0,0,1-4.73,3.47C985.39,325.13,946.28,390.23,932.92,386Z" transform="translate(-480 -81)"/><path class="cls-4" d="M932.12,379c8.29-45.64,56.31-67.9,81.55-79.6,2.5-1.15,6.94-2.91,12.06-1.93,7.09,1.36,11.46,8.33,15,14.65s7.17,13.41,5.76,20.54c-1,5.07-4.44,9.27-7.75,13.24-9.29,11.12-18.66,22.33-30,31.39-8.87,7.11-21.33,15-39.25,17.07A73.21,73.21,0,0,1,931,388,76.88,76.88,0,0,1,932.12,379Z" transform="translate(-480 -81)"/><path class="cls-5" d="M1021,302c-1.92-.18-3.26.15-4,1q-3.57,4.08,11,24c.93,1.69,6.48,12.2,2,23-5.46,13.15-22.7,19.3-30,15-2-1.18-3.36-3.21-4.37-2.73-2.2,1.05,2.75,10.67-.37,16.68-2.85,5.47-10.59,5.16-16.73,4.66-19-1.56-37.89,2.52-56.49,6.58-2.09.46,11.36,2.17,15.78,10.71,0,0,1.18,2.28,2.18,17.1h117a53.92,53.92,0,0,0,22-16c12-14.72,12.13-31.23,12-36q0-23.1-.07-46.21c-1.23-.89-3.11-2.32-5.27-4.23-3.24-2.85-4.38-4.39-7.52-7.14,0,0-2.7-2.36-5.69-4.44-4.62-3.23-11.54-4.67-28.45-4C1037.88,300.25,1030.07,300.79,1021,302Z" transform="translate(-480 -81)"/><path class="cls-5" d="M1063,449" transform="translate(-480 -81)"/><path class="cls-5" d="M1089,286c-1.79,4.46-10.13,11.34-23.08,14.85-17.4,4.71-33,.61-41.37-2.38a49,49,0,0,0,8.17-8.85,43.31,43.31,0,0,0,4.08-6.82c2.5-5.25,2.29-7.74,4.08-12.94,1.54-4.48,2.16-4,5.45-10.9,5.78-12.2,3.53-13,7.48-18.4,0,0,5.41-7.36,7.84-11.79,0,0,.09-.17.21-.38s.14-.25.33-.6c4-7.25,4.07-8.88,6.93-14.14,1.51-2.78,3-5,5.45-8.86,1.5-2.32,2.25-3.47,2.72-4.09,3.19-4.13,5.78-4.57,10.21-8.86A41.58,41.58,0,0,0,1091,188v29c0,.22,0,.57,0,1-.2,6.81-4.48,11.72-5.14,12.59-2.65,3.42-3.23,13.77,5.14,43.41a26.83,26.83,0,0,1,0,3A32.06,32.06,0,0,1,1089,286Z" transform="translate(-480 -81)"/><g class="cls-11"><path class="cls-12" d="M1057,421.82l-8,9.27,2.5,1.46a5.32,5.32,0,0,0-3.29-6.55,5.16,5.16,0,0,0-6.37,3.5,1.5,1.5,0,0,0,2.89.8,2.14,2.14,0,0,1,2.69-1.41,2.33,2.33,0,0,1,1.19,2.86,1.51,1.51,0,0,0,2.51,1.46l8.05-9.27a1.54,1.54,0,0,0,0-2.12,1.52,1.52,0,0,0-2.12,0Z" transform="translate(-480 -81)"/></g><path class="cls-8" d="M1055.51,305.63c-1.71,1.88-2.37,3-2.44,4.35-.3,5.29,8.65,9,12.91,11.95,16.73,11.66,19.45,52.79,1.07,74.42a56.86,56.86,0,0,1-20.78,15.06,118.14,118.14,0,0,1-16.33,4.26c-5.35,1.14-9.82,1.87-12.94,2.33l74-1V290a75.21,75.21,0,0,0-11,2C1072.12,294.06,1062.5,298,1055.51,305.63Z" transform="translate(-480 -81)"/><path class="cls-4" d="M1057.16,307.93c2.73,1.62,8.11-5.18,19.12-9.95a53.68,53.68,0,0,1,14.72-4V210c-10.89,27-10.49,39.32-7.59,45.48.68,1.43,3.37,6.43,1.44,10.92-1.31,3.06-4.6,4.62-7.48,6.26-7.33,4.76-16.69,12.85-20.12,24.93C1056.73,299.45,1054.87,306.57,1057.16,307.93Z" transform="translate(-480 -81)"/><path class="cls-8" d="M1084.74,385.23s-20.48,4.31-28.19,12c-3.68,3.68-3.58,4.76-4.82,6.72a21.21,21.21,0,0,1-2,2.59c-1.66,1.8-11.91,6.71-26.68,11.47h68V384C1089.37,384.28,1087.23,384.68,1084.74,385.23Z" transform="translate(-480 -81)"/><path class="cls-13" d="M1067.08,289.28" transform="translate(-480 -81)"/><g class="cls-14"><path class="cls-15" d="M921.43,94.22c-1.42,2.58-4.4,6.62-15.95,11.92a101.64,101.64,0,0,1-18.83,6.48,30.11,30.11,0,0,1,4.7-11.07A30.53,30.53,0,0,1,900,93.2c9.81-6.18,20.58-4.2,23.29-3.63A20.86,20.86,0,0,1,921.43,94.22Z" transform="translate(-480 -81)"/></g><g class="cls-14"><path class="cls-15" d="M1011.52,113.86c-2.42-1.5-8.33,3.43-11.37,6.71a32,32,0,0,0-6.73,11.36,45.12,45.12,0,0,0,25.92-18.08c-2.35,1.06-5.36,2-7.19.56C1011.82,114.15,1011.8,114,1011.52,113.86Z" transform="translate(-480 -81)"/></g><g class="cls-14"><path class="cls-15" d="M989.5,88A53.66,53.66,0,0,0,992,111.12q8.77-11.55,17.54-23.12Z" transform="translate(-480 -81)"/></g><g class="cls-14"><path class="cls-15" d="M1018.78,142,999,151.25a50,50,0,0,0,21.15,16.6,37.39,37.39,0,0,0-.26-25.28" transform="translate(-480 -81)"/></g><g class="cls-16"><path class="cls-15" d="M944.45,137.7l54.72,56.63,15.46,16c1.35,1.39,3.47-.74,2.12-2.12L962,151.58l-15.46-16c-1.35-1.39-3.47.73-2.12,2.12Z" transform="translate(-480 -81)"/></g><g class="cls-16"><path class="cls-15" d="M889.48,133.36,932.74,176,945,188.1c1.38,1.36,3.5-.76,2.12-2.12l-43.26-42.63L891.6,131.24c-1.38-1.36-3.5.76-2.12,2.12Z" transform="translate(-480 -81)"/></g><g class="cls-16"><path class="cls-15" d="M912.25,123.86l42.89,32.31c1.54,1.16,3-1.44,1.51-2.59l-42.89-32.31c-1.54-1.16-3,1.44-1.51,2.59Z" transform="translate(-480 -81)"/></g><g class="cls-16"><path class="cls-15" d="M934.73,122.3,963,151.37c1.35,1.39,3.47-.74,2.12-2.12l-28.21-29.07c-1.35-1.39-3.47.74-2.13,2.12Z" transform="translate(-480 -81)"/></g><g class="cls-16"><path class="cls-15" d="M933.25,121.22l-11.09,12c-1.3,1.42.81,3.55,2.13,2.13l11.08-12c1.31-1.42-.81-3.55-2.12-2.12Z" transform="translate(-480 -81)"/></g><g class="cls-16"><path class="cls-15" d="M919.25,136.32l-38.44,41.92c-1.3,1.42.81,3.55,2.12,2.12l38.45-41.92c1.3-1.42-.82-3.55-2.13-2.12Z" transform="translate(-480 -81)"/></g><g class="cls-16"><path class="cls-15" d="M915.66,174.61l41-41.11a1.5,1.5,0,0,0-2.12-2.12l-41,41.1a1.5,1.5,0,0,0,2.12,2.13Z" transform="translate(-480 -81)"/></g><g class="cls-16"><path class="cls-15" d="M939.71,165.86l43.73-42.63c1.38-1.35-.74-3.47-2.12-2.12l-43.73,42.62c-1.39,1.35.73,3.47,2.12,2.13Z" transform="translate(-480 -81)"/></g><g class="cls-16"><path class="cls-15" d="M924.84,199.19l47.31-55.48,13.29-15.58c1.25-1.46-.87-3.59-2.12-2.12L936,181.49l-13.29,15.58c-1.25,1.46.87,3.59,2.12,2.12Z" transform="translate(-480 -81)"/></g><g class="cls-14"><path class="cls-15" d="M871.55,88a34.4,34.4,0,0,0,.42,18,34,34,0,0,0,6.94,12.59q3.35-8.69,6.7-17.37c1.27-3.3,2.84-6.92,6.1-8.3,2.9-1.22,6.27-.23,9.08,1.2,12.9,6.56,19.83,23,15.54,36.81a55.61,55.61,0,0,0,7.35-9.33,23.8,23.8,0,0,0,2.76-10.85c0-2.1.25-11.37-6.89-17.7A21,21,0,0,0,908,88H871.55Z" transform="translate(-480 -81)"/></g><g class="cls-14"><path class="cls-15" d="M864.48,91.72c-1.65,3.09-4.78,6.8-16,11.92a101.24,101.24,0,0,1-18.82,6.48,29.77,29.77,0,0,1,4.7-11.07,24.37,24.37,0,0,1,8.65-8.35A22.61,22.61,0,0,1,853,88h13A19.26,19.26,0,0,1,864.48,91.72Z" transform="translate(-480 -81)"/></g><g class="cls-14"><path class="cls-15" d="M932.55,88a54.1,54.1,0,0,0,.11,12.94A53.54,53.54,0,0,0,935,111.12L952.55,88Z" transform="translate(-480 -81)"/></g><g class="cls-14"><path class="cls-15" d="M952.83,114.54l-19.77,9.21a50,50,0,0,0,21.16,16.6,37.45,37.45,0,0,0-.26-25.28" transform="translate(-480 -81)"/></g><g class="cls-14"><path class="cls-15" d="M929.35,125.38c-1.42,2.57-4.4,6.61-16,11.92a101.72,101.72,0,0,1-18.83,6.47,29.77,29.77,0,0,1,4.7-11.07,30.54,30.54,0,0,1,8.65-8.34c9.81-6.18,20.58-4.21,23.28-3.63A20.45,20.45,0,0,1,929.35,125.38Z" transform="translate(-480 -81)"/></g><g class="cls-14"><path class="cls-15" d="M1001.35,147.38c-1.42,2.57-4.4,6.61-16,11.92a101.72,101.72,0,0,1-18.83,6.47,29.77,29.77,0,0,1,4.7-11.07,30.54,30.54,0,0,1,8.65-8.34c9.81-6.18,20.58-4.21,23.28-3.63A20.45,20.45,0,0,1,1001.35,147.38Z" transform="translate(-480 -81)"/></g><g class="cls-14"><path class="cls-15" d="M947.16,107a54.1,54.1,0,0,0,.11,12.94,53.54,53.54,0,0,0,2.36,10.18L967.16,107Z" transform="translate(-480 -81)"/></g><g class="cls-14"><path class="cls-15" d="M930.9,88a33.95,33.95,0,0,0,7.35,30.54q3.36-8.69,6.7-17.37c1.27-3.3,2.85-6.92,6.11-8.3,2.9-1.22,6.26-.23,9.07,1.2,12.9,6.56,19.84,23,15.55,36.81a55.55,55.55,0,0,0,7.34-9.33,23.67,23.67,0,0,0,2.76-10.85c.05-2.1.26-11.37-6.88-17.7a21.07,21.07,0,0,0-11.55-5H930.9Z" transform="translate(-480 -81)"/></g><path class="cls-8" d="M639,438" transform="translate(-480 -81)"/><path class="cls-4" d="M822,429" transform="translate(-480 -81)"/><rect class="cls-17" x="5.5" y="5.5" width="610" height="333"/><rect class="cls-18" x="420.5" y="20.5" width="109" height="50" rx="3"/><text class="cls-19" transform="translate(446.88 54.72)">LIVE</text><path class="cls-4" d="M648.07,382c1.41-.46,3.44-2.61,7.5-6.93a74,74,0,0,0,6.47-7.9l-5.08.6c-.29-4.82-.49-10,2.1-14.09,2.31-3.65,6.52-5.79,8.74-9.5,3.35-5.6,1.2-12.86,2.79-19.2,1.84-7.37,8.73-13.52,7.84-21.06-.31-2.62-1.56-5-2.29-7.56s-.83-5.53.88-7.54c1.42-1.66,4.06-2.75,4-4.94-.09-2-2.56-3.18-2.84-5.16s1.85-4.63.26-6c-.91-.79-2.3-.35-3.46,0a15.28,15.28,0,0,1-17-6.82c-1-1.72-1.67-3.69-3.1-5.06s-4-1.86-5.3-.32c-.89,1.09-.74,2.67-.69,4.09.31,9.23-6.13,17.62-14,22.37s-17.19,6.58-26.21,8.52-18.28,4.19-25.78,9.57a7.59,7.59,0,0,0-3.08,3.54c-.82,2.48,1.1,5,1.45,5.44a10.35,10.35,0,0,0,4.73,3.47C595.59,321.19,634.7,386.29,648.07,382Z" transform="translate(-480 -81)"/><path class="cls-4" d="M648.86,375c-8.28-45.63-56.31-67.89-81.55-79.59a19.78,19.78,0,0,0-12.06-1.93c-7.09,1.36-11.46,8.33-15,14.65s-7.18,13.41-5.76,20.54c1,5.07,4.43,9.27,7.74,13.24,9.29,11.12,18.66,22.33,30,31.39,8.86,7.11,21.33,15,39.25,17.07A73.17,73.17,0,0,0,650,384.09,75,75,0,0,0,648.86,375Z" transform="translate(-480 -81)"/><path class="cls-5" d="M560,298.06c1.93-.18,3.26.15,4,1q3.57,4.08-11,24c-.92,1.69-6.48,12.19-2,23,5.46,13.15,22.7,19.3,30,15,2-1.18,3.36-3.21,4.38-2.73,2.19,1.05-2.76,10.67.37,16.68,2.84,5.47,10.58,5.16,16.73,4.66,19-1.56,37.89,2.52,56.48,6.58,2.09.46-11.35,2.17-15.78,10.71,0,0-1.18,2.28-2.18,17.1H524a54,54,0,0,1-22-16c-12-14.72-12.12-31.23-12-36q0-23.1.08-46.21c1.22-.89,3.1-2.32,5.27-4.23,3.23-2.86,4.38-4.39,7.52-7.14,0,0,2.69-2.36,5.68-4.44,4.63-3.23,11.55-4.67,28.45-4C543.1,296.31,550.91,296.85,560,298.06Z" transform="translate(-480 -81)"/><path class="cls-5" d="M518,445.06" transform="translate(-480 -81)"/><path class="cls-5" d="M492,282.06c1.8,4.46,10.14,11.34,23.08,14.85,17.41,4.71,33,.61,41.38-2.38a48.93,48.93,0,0,1-8.17-8.85,43.31,43.31,0,0,1-4.08-6.82c-2.5-5.25-2.3-7.74-4.09-12.94-1.54-4.48-2.16-4-5.44-10.9-5.79-12.2-3.53-13-7.49-18.4,0,0-5.4-7.36-7.83-11.79,0,0-.1-.17-.21-.38s-.15-.25-.34-.6c-4-7.25-4.07-8.88-6.93-14.14-1.51-2.78-3-5-5.44-8.86-1.5-2.32-2.25-3.47-2.73-4.09-3.19-4.13-5.78-4.57-10.2-8.86a41.54,41.54,0,0,1-3.51-3.84v29c0,.22,0,.57,0,1,.2,6.81,4.48,11.72,5.15,12.59,2.65,3.42,3.23,13.77-5.15,43.41,0,.72-.06,1.76,0,3A32.48,32.48,0,0,0,492,282.06Z" transform="translate(-480 -81)"/><g class="cls-11"><path class="cls-12" d="M521.82,420l8.06,9.27a1.51,1.51,0,0,0,2.5-1.46,2.32,2.32,0,0,1,1.2-2.86,2.13,2.13,0,0,1,2.68,1.41,1.51,1.51,0,0,0,2.9-.8,5.17,5.17,0,0,0-6.38-3.5,5.33,5.33,0,0,0-3.29,6.55l2.51-1.46-8.06-9.27a1.5,1.5,0,0,0-2.12,2.12Z" transform="translate(-480 -81)"/></g><path class="cls-8" d="M525.47,301.69c1.72,1.88,2.37,3,2.45,4.35.3,5.29-8.65,9-12.92,11.95-16.72,11.65-19.45,52.79-1.07,74.42a56.85,56.85,0,0,0,20.78,15,116.85,116.85,0,0,0,16.34,4.27c5.34,1.14,9.82,1.87,12.93,2.33l-74-1v-127a75,75,0,0,1,11,2C508.87,290.12,518.48,294,525.47,301.69Z" transform="translate(-480 -81)"/><path class="cls-4" d="M523.82,304c-2.72,1.62-8.11-5.18-19.12-9.95a53.59,53.59,0,0,0-14.72-4v-84c10.89,27,10.49,39.32,7.59,45.47-.67,1.44-3.37,6.44-1.44,10.93,1.31,3.06,4.61,4.61,7.48,6.26,7.34,4.76,16.69,12.85,20.12,24.93C524.26,295.51,526.11,302.63,523.82,304Z" transform="translate(-480 -81)"/><path class="cls-8" d="M496.24,381.29s20.49,4.3,28.19,12C528.11,397,528,398,529.25,400a22,22,0,0,0,2.06,2.59c1.66,1.79,11.91,6.71,26.67,11.47H490v-34C491.61,380.34,493.75,380.74,496.24,381.29Z" transform="translate(-480 -81)"/><path class="cls-13" d="M513.9,285.34" transform="translate(-480 -81)"/></g><g id="Ebene_4" data-name="Ebene 4"><text x="-480" y="-81"/><path class="cls-20" d="M775,299a47,47,0,0,0,7-11,46.28,46.28,0,0,0,3-10c1-4.67,2.75-15.46,1-16-2-.61-7.46,12.1-10,18-3.75,8.68-10,25-8,26C769,306.5,771.57,303.28,775,299Z" transform="translate(-480 -81)"/><path class="cls-21" d="M681.5,321.5a170,170,0,0,0,3-59,7,7,0,0,1-4,1c-5-.42-8.92-7.3-10-13-.89-4.7.67-6.06-1-11-.86-2.54-1.67-3.37-2-6s-.12-7,2-8c.39-.18.64-.15,4,0h0l1,2a59.69,59.69,0,0,1,3,8c2.32,7.93,1.76,7.42,3,11a68.4,68.4,0,0,0,5,11c2,3.61,2,2.92,3,5,2.8,5.82,1.34,8.19,4,14,.77,1.68,2.84,6.19,5,6s1.94-4.79,5-6c.76-.3,2.81-.82,10,4,6.48,4.35,5.67,5.35,9,7,6.86,3.39,17.2,2.54,20-2,.78-1.26,1.15-3.09,3-4a4.26,4.26,0,0,1,4,0c2,1.32.56,4.24,2,6,2.43,3,12.09,1.66,17-4,3.08-3.54,1.33-5.38,4-14,2.41-7.77,4.12-7.2,10-21,.76-1.79,1.84-4.2,4-9,3.16-7,4.3-9.41,7-11,.59-.35,4-2.39,7-1,3.54,1.67,4.63,7.48,3,11-.94,2-2.1,1.81-3,4-1.15,2.81.26,4.33,0,8-.17,2.35-1.11,4.23-3,8-2.52,5-3.77,7.53-6,8a14.11,14.11,0,0,1-6,0c-.22-.06-.84-.23-1,0-.3.43,1.43,1.58,2,3,1,2.47-1.63,5.39-4,9-2,3.12-3.26,6.7-5,10-2.53,4.8-5.32,15.39-7,40Z" transform="translate(-480 -81)"/><path class="cls-22" d="M788.32,263.91a7.13,7.13,0,0,1-4.78,1.78,3.93,3.93,0,0,1-3.28-1.5,3.42,3.42,0,0,1,.12-3.6c.19-.28.56-.75,2.55-1.58a13.92,13.92,0,0,1,6.16-1.45c1.51,0,2.39.06,2.75.64C792.62,259.46,790.39,262.34,788.32,263.91Z" transform="translate(-480 -81)"/><path class="cls-22" d="M682,260a7.14,7.14,0,0,1-5-1,4,4,0,0,1-2-3,3.43,3.43,0,0,1,2-3c.31-.14.87-.34,3,0a13.94,13.94,0,0,1,6,2c1.26.83,2,1.31,2,2C688,258.48,684.59,259.76,682,260Z" transform="translate(-480 -81)"/><path class="cls-23" d="M742,292c3.18,5.59,5,5.3,7,9,4.67,8.57-1.77,16.08,2,21,1.75,2.29,6,4.44,18,2a122.79,122.79,0,0,1,1-13c1.12-8.58,2-14.9,5-22,4.47-10.4,11.31-16.88,9-20-.88-1.18-2.15-.64-3-2-1.71-2.75,2.41-6.72,4-13a23.46,23.46,0,0,0,0-11l-4,6-4,6-6,9c-6,10.25-1.86,18-7,21a9.13,9.13,0,0,1-8,0c-3.19-1.55-2.92-4.2-6-6-3.48-2-9.1-1.73-11,1C736.89,283,739.86,288.24,742,292Z" transform="translate(-480 -81)"/><path class="cls-23" d="M692,310c3.36-4.2,3.29-7.83,6-15,1.44-3.8,3.11-8.21,6-12,7.6-9.95,19.25-9.86,19-13-.22-2.75-9-.76-21-7-3.47-1.8-8-4.71-14-4a16.58,16.58,0,0,0-4,1,27,27,0,0,1,1,3,29.39,29.39,0,0,1,1,7c.56,19,0,27,0,27-.34,4.85-.93,11.33-2,19A20.94,20.94,0,0,0,692,310Z" transform="translate(-480 -81)"/><path class="cls-20" d="M673.5,212.5c-.28-4.12-.63-9.57-1-16-.9-15.92-.73-17.62,0-20,1.74-5.63,4.11-6.86,7-16,1.56-4.94.9-4.68,2-7,4-8.52,13-12.18,15-13,5.48-2.24,5.83-.65,10-3,4.84-2.73,6.2-5.91,11-7a15,15,0,0,1,6,0c10.2,1.51,13.82-1.67,23-1a50.14,50.14,0,0,1,28,12c2.06,1.9,4.43,4.61,9,7,3.46,1.81,5,1.77,8,4a17.52,17.52,0,0,1,6,7,15.8,15.8,0,0,1,1,8c-1.21,12.82,2,15.15,0,33a127.7,127.7,0,0,1-5,25c-7.13,22.88-14.42,21.55-20.5,42.5-2.9,10-3.15,16.85-9,20-4.6,2.48-12.4,2.51-15-1-1.26-1.71-.78-3.55-2-4-2-.71-3.65,3.81-9,6a16.81,16.81,0,0,1-8,1,21.19,21.19,0,0,1-9-3c-2.82-1.68-3-2.64-6-4a15.61,15.61,0,0,1-4-2c-1.79-1.4-1.63-2.21-3-3a6.18,6.18,0,0,0-6,0c-2.4,1.51-2,4.5-4,5-1.23.32-2.45-.59-3-1-5.65-4.21-5.43-17.57-13-29-3.22-4.86-6.61-7.51-8-14-.16-.75-.35-1.81-.5-7.5C673.26,222.37,673.91,218.49,673.5,212.5Z" transform="translate(-480 -81)"/><path class="cls-24" d="M713,174c-.74,1.66-9.53,1.67-13-3-5.06-6.82,4.52-19.18,0-23-2.13-1.8-5.89-.41-7,0-6.85,2.54-10.34,11.86-9,19,.55,2.91,1.58,3.74,9,13,11.1,13.84,11.44,15.28,15,17,6.8,3.27,9.1-.27,17,3,5.75,2.38,9,6.09,15,13,9,10.39,7.71,13.17,15,19,4.29,3.44,7.86,5,15,8,6.7,2.86,8.62,2.78,10,2,2.49-1.4,2-4.35,5-10,1.91-3.56,3.45-4.86,5-7,1.33-1.84,3.6-5.58,5-20,1.15-11.81,1.86-19.06,0-29-1.44-7.7-2.37-12.67-6-18-5.68-8.32-13.79-11.39-26-16a94.51,94.51,0,0,0-29-6c-8.75-.39-14.16.65-19,3-2.66,1.29-5.62,2.77-8,6-4.45,6-4.45,14.93-1,21C709,171.22,713.57,172.72,713,174Z" transform="translate(-480 -81)"/><path class="cls-25" d="M555,375a66.76,66.76,0,0,1,21-10c9.9-2.68,12.72-.82,23-4,8.78-2.71,8.76-4.7,20-9a143.09,143.09,0,0,1,21-6c15.92-3.62,24.12-3.54,28-10,1-1.69.54-1.84,2-5a39.68,39.68,0,0,1,11-14c.92,0,2.31,0,4,0,8.62-.17,13.09-1.39,18-2,13.89-1.72,16.45,3.3,27,1a32.25,32.25,0,0,1,10-1c1.86.13,2.57.37,7,1,4.08.58,6.5.82,8,1a75.57,75.57,0,0,1,16,4,19.22,19.22,0,0,0,1,2c1.08,1.89,2.15,3,5,6,3.09,3.23,3.64,3.79,4,5a7.47,7.47,0,0,1,0,4c.44.49,1.12,1.2,2,2,7.41,6.69,14.7,5.92,26,9,10.37,2.83,9.08,4.8,21,8,8.61,2.31,8.54,1.09,16,3,3.34.86,7.93,2.28,32,15,10.81,5.72,12.3,6.7,14,8,4.43,3.38,12.34,9.56,16,20,1.34,3.83,1.56,7.22,2,14,.82,12.67-1.22,16.09,0,25,1,7.11,3.16,11.46,5,16,9.84,24.36,9.93,55.52,10,78,0,5-.17,9.85,2,16s4.74,8.14,7,16c.78,2.72.33,2,2,10,2.22,10.67,3,11.67,3,15a27,27,0,0,1-4,14,52.26,52.26,0,0,0,2,6,55.38,55.38,0,0,0,4,8c4.85,8.54,2.65,21.35,1,31-.65,3.78-1.42,6.87-2,9l-361.5,4.5a90.47,90.47,0,0,1-3-12c-1.27-7.17-1.26-12.25-3-24-.22-1.48-1.21-8-2-8-.58,0,.08,3.51-2,7-1.67,2.8-3.24,2.49-6,6-1.58,2-3,3.81-3,6,0,4.68,6.48,7.76,7,8v16.29h-82a47.31,47.31,0,0,0,3-4.29,61.33,61.33,0,0,0,5-11c.58-1.54,1.25-4-1-17-2.19-12.68-3.4-13.58-4-21-.52-6.43-.89-10.86,1-16,2.82-7.7,8.87-12.07,12-14l-12-11a40.16,40.16,0,0,1,0-10c1.28-10.15,5.63-12.52,11-28,1-2.92,2-6,4-11,1.94-4.73,2.93-6.45,4-9,2-4.78,2.84-9,4-19,2-17.19.87-16.39,2-22,3-15,10.09-16.21,15-32,3.36-10.8,1.19-13.89,3-24C533.38,405,538.84,390.79,555,375Z" transform="translate(-480 -81)"/><path class="cls-26" d="M678.5,172.5c6.86-.39,9.19-2.28,10-4,1.21-2.57-1-4.6,0-9,.13-.58,1.41-5.83,5-7,2.88-.94,4.16,1.74,9,2,1.17.06,6.88.21,9-3,2.29-3.46-1.13-8.46,1-10,.86-.62,1.53.1,4,0,4-.16,4.74-2.13,7-2,4.42.25,5.25,8,9,8,2.47,0,5.16-3.38,5-6-.1-1.7-1.35-2.48-1-3,.69-1,6.08.92,11,4,5.23,3.27,4.35,4.34,8,6,1,.44,7.6,3.47,14,1,2.77-1.07,3.45-2.38,5-2,2.56.62,2.18,4.53,5,10,2.11,4.09,5.74,7.06,13,13,1.82,1.49,3.1,2.43,4,2,1.64-.79,1-5.74,0-9a21.43,21.43,0,0,0-7-10c-3.59-2.87-5.34-2.48-10-5-5.73-3.1-5.65-5.09-11-9-2.47-1.8-11.87-8.68-23-8-5.85.36-6.28,2.44-12,2-6.14-.47-8-3.07-13-2a22.67,22.67,0,0,0-8,4c-3.46,2.39-4.06,3.82-7,5s-3.89.32-7,1c-6.18,1.35-10.06,6.45-12,9-2.54,3.34-3.64,6.32-5,10A57.17,57.17,0,0,0,678.5,172.5Z" transform="translate(-480 -81)"/><path class="cls-26" d="M759,187c2.24,1.54-6.94,13.87-3,19,2.49,3.24,9.78,3,14,0,2.42-1.74,3.62-5.16,6-12a61.46,61.46,0,0,0,3-11c1.21-7.26,1.81-10.89,0-14s-3.78-1.85-12-8a71.82,71.82,0,0,0-7-5c-5.36-3.25-7.18-3.13-8-3-3.22.53-3.12,3.35-6,4-4.79,1.09-8-6-13-5-1.33.27-1.16.79-5,4-5.75,4.81-8.62,7.21-12,7-2.83-.18-4.48-2-6-1a2.66,2.66,0,0,0-1,3c.73,1.53,3.91,1.26,9,1,14.56-.73,16.1.12,17,1,2.27,2.21,2.13,6.18,2,10-.18,5.24-1.85,6.22-1,9,1.15,3.78,5.72,6.85,10,7C752.91,193.25,757.33,185.85,759,187Z" transform="translate(-480 -81)"/><path class="cls-26" d="M741,253c-2.9-14.58-2.43-18.68-6-21-1.46-.95-2-.58-9-1-10.89-.66-16.39-1.05-19-4-3-3.39-3.2-9.52-1-11s5.51,2.34,14,7c14.2,7.79,18.4,4.64,27,12,4.9,4.2,5,6.49,10,9a90,90,0,0,0,13,5c3.27.95,5.48,1.38,6,3s-1,2.9-3,6a46.46,46.46,0,0,0-5,11c-2,6.77,0,9.73-2,11-2.49,1.57-7.3-1.76-12-5-3.13-2.16-5.71-3.94-8-7C744,265.38,742.93,262.68,741,253Z" transform="translate(-480 -81)"/><path class="cls-26" d="M684,234c3.4,6.86,3.22,9.58,7,19,2.15,5.35,3.26,8.07,5,10,2.75,3.06,6.17,4.7,13,8,5.12,2.47,4.77,1.81,9,4,5.15,2.68,6.26,4,9,4s3.2-1.28,8-3c2.77-1,6.56-2.36,11-2,3.83.31,10,2.05,11,6,.4,1.58,0,3.64-1,4-1.7.63-3.21-4.46-8-6-3.41-1.1-6.75.16-9,1-4.55,1.7-5.52,3.92-8,5-5.47,2.37-7.81-5.57-19-8-4.93-1.07-11-2-11-2-4.34-.67-5.74-.73-7-2-2.29-2.3-.9-5.3-2-10-1-4.16-2.55-3.85-6-10-2.81-5-4.21-10.34-7-21-1.18-4.49-1.37-5.84-1-6C678.78,224.66,681.88,229.72,684,234Z" transform="translate(-480 -81)"/><path class="cls-22" d="M787,248s.07-.15.15-.43A32.32,32.32,0,0,1,789,243c1.53-3.34,2.29-5,3-5,1.68,0,2.91,7,3,7a55.16,55.16,0,0,1-1-10c0-2.73.35-3.66,1-4,1.74-.91,4.94,2.85,6,2,.47-.38.23-1.46,0-2-.56-1.32-2-1.73-3-2a7.22,7.22,0,0,0-4,0c-2.65.9-3.79,3.78-5,7C786.73,242,786.81,248,787,248Z" transform="translate(-480 -81)"/><path class="cls-27" d="M755,585c1.68,1.28,13.85-11.36,23-23,8.94-11.37,17.47-22.22,22-38,4.33-15.07.18-17.84,3-33,5.47-29.45,26.55-48.32,27-48s-23,25.81-41,69c-5.35,12.83-7.12,19.78-15,36C762.83,571,753.39,583.78,755,585Z" transform="translate(-480 -81)"/><path class="cls-28" d="M690,489c.46,0-1.12-17.79,5-42,3.47-13.73,9.33-29.19,6-31-2-1.08-5.89,3.44-8,2s-.52-8,0-8C694.8,410.15,689,488.94,690,489Z" transform="translate(-480 -81)"/><path class="cls-28" d="M731,484c.74,0,.93-3.14,4-35,4.24-44,5.31-52.74,4-53-1.78-.35-7.25,15.29-10,31C723.81,456.68,728.79,484,731,484Z" transform="translate(-480 -81)"/><path class="cls-29" d="M735,567a379.72,379.72,0,0,0-44.5,97.5l50-1A279.83,279.83,0,0,0,763,613a283.39,283.39,0,0,0,14-100A378.38,378.38,0,0,0,735,567Z" transform="translate(-480 -81)"/><path class="cls-30" d="M818.5,590.5c1.74.45,8.36-28.91,26-75,18-47.1,31.24-69,28-71-3.06-1.87-19.12,15-29,36-5.74,12.21-7.43,21.63-10,35C823.08,569.64,817,590.12,818.5,590.5Z" transform="translate(-480 -81)"/><path class="cls-30" d="M566.5,420.5c1.33-.29,16,31.05,18,72,1.52,30.62-4.78,51.07,8,61,8.45,6.57,17.83,2.77,25,12,6.69,8.61,6.61,22.33,2,25-6.21,3.6-26.38-11.29-20-8h0s-12.07-21.86-17-33c-10.5-23.75-3.7-33.12-9-82C570.28,437.82,565.54,420.71,566.5,420.5Z" transform="translate(-480 -81)"/><path class="cls-30" d="M654.5,662.5c3.07-8.37,8.14-21.78,15-38,30.63-72.47,54.51-100.83,43-116-6.31-8.31-21.53-10.59-26-6-3.88,4,.9,12.55,3,22,5.15,23.25-8.71,40.58-19,64C663.35,604.77,655.65,629,654.5,662.5Z" transform="translate(-480 -81)"/></g></svg>