<svg id="Ebene_1" data-name="Ebene 1" xmlns="http://www.w3.org/2000/svg" viewBox="0 0 303 365"><defs><style>.cls-1{fill:#dbc7bf;}.cls-2,.cls-35{fill:#fff;}.cls-2,.cls-27{opacity:0.2;}.cls-3{opacity:0.1;}.cls-4{fill:#c69c6d;}.cls-5{fill:#ba7996;}.cls-6{fill:#d39bb2;}.cls-7{fill:#c7b299;}.cls-8{fill:#ddc4ab;}.cls-9{fill:#897e77;}.cls-10{fill:#b7a392;}.cls-11{fill:#998675;}.cls-12{fill:none;stroke:#fff;}.cls-12,.cls-16,.cls-22,.cls-23,.cls-24{stroke-miterlimit:10;}.cls-13{opacity:0;}.cls-14,.cls-16{fill:#736357;}.cls-15{fill:#534741;}.cls-16{stroke:#736357;}.cls-17{fill:#a85e7d;}.cls-18{fill:#fbb03b;}.cls-19,.cls-24{fill:#544d47;}.cls-20{fill:#ce89aa;}.cls-21{fill:#b27676;}.cls-22{fill:#c99f9f;stroke:#b27676;}.cls-23{fill:#aa8f7b;}.cls-23,.cls-24{stroke:#c69c6d;}.cls-25{fill:#dbd0cc;}.cls-26{fill:#c1b9b6;}.cls-28{fill:#baaba6;}.cls-29{opacity:0.8;}.cls-30{fill:#ceb6ae;}.cls-31{fill:#bfb1ac;}.cls-32{fill:#f2f2f2;}.cls-33{opacity:0.3;}.cls-34{fill:#e6e6e6;}.cls-36{fill:#fff1e7;}.cls-37{opacity:0.4;}.cls-38{fill:#ddd2cf;}.cls-39{fill:#96928f;}.cls-40{opacity:0.7;}.cls-41{fill:#7f7c7a;}</style></defs><path class="cls-1" d="M613.74,287.64a20.91,20.91,0,0,1,6.8-1.13c6.9.15,12.22,5.32,20.4,12.44a70.34,70.34,0,0,1,6.79,6.78,30.92,30.92,0,0,0,4.54,1.13c7.72,1.31,11.76-1.07,13.6,1.13,1.35,1.62.57,4.57,0,6.78-.84,3.22-2.2,3.86-2.27,6.79a8,8,0,0,0,1.13,4.52,9.37,9.37,0,0,0,2.27,2.26c2.63,2.21,2.23,2.52,4.53,4.52,3.41,3,5,2.9,6.8,5.66a11.54,11.54,0,0,1,1.14,2.26c1.74,4.93-3.28,11.26-5.67,14.69-7,10.11-3.88,12.93-9.07,20.35-13.13,18.8-45.31,17.76-48.73,13.57-1-1.18-.81-1.82-2.26-9.05,0,0-1.49-7.39-4.54-19.21-4-15.37-11.28-14.53-14.73-27.14-5.7-20.87,9.85-39.77,13.6-43A21.62,21.62,0,0,1,613.74,287.64Z" transform="translate(-570.25 -116)"/><path id="Kamm" class="cls-2" d="M746.2,132.91a2.45,2.45,0,0,1,.36-1.46c.32-.45.63-.3,1.1-.73a2.78,2.78,0,0,0,.73-1.45,5.58,5.58,0,0,1,1.82-2.55v-.37c0-1.33,0-2,.37-2.18s.41.13.73,0,.36-.71.73-1.09a1.69,1.69,0,0,1,1.46-.37,5.8,5.8,0,0,1,0-.73c.08-1.14.59-2.55,1.1-2.55.32,0,.72.61.73,1.1a1.44,1.44,0,0,0,0,.36,1.36,1.36,0,0,0,.36.73,2.34,2.34,0,0,0,.37-.73c.21-.69,0-1,0-1.82,0-.38.06-1.44.73-1.82a1,1,0,0,1,1.09,0,1.12,1.12,0,0,1,.37.73,2.05,2.05,0,0,1,0,.73,7.09,7.09,0,0,0,0,2.18,9.45,9.45,0,0,0,.73-1.82,6.68,6.68,0,0,1,.73-2.18c.21-.35.46-.76.73-.73s.77,1,.73,1.82c0,.51-.21.94,0,1.09a.38.38,0,0,0,.36,0c.41-.19.34-.88.73-2.18.18-.61.28-.73.37-.73s.14.06.36.73c.3.86.22,1,.37,1.09.45.4,1.31-.37,1.82,0,.31.22.13.58.37,1.82.17.91.3.85.36,1.46a3.24,3.24,0,0,1-.36,2.18c-.12.18-.67,1.06-1.46,1.09s-.94-.54-1.46-.36a1.61,1.61,0,0,0-.73.73,4.56,4.56,0,0,0-.37.73,3,3,0,0,1-1.09,1.09,25.48,25.48,0,0,0-2.92,2.18c-1.22,1.14-1.09,1.72-2.92,3.65l-.73.72c-1.27-.43-1.87-.24-2.19,0-.71.53-.31,1.5-1.1,2.19a2.4,2.4,0,0,1-2.19.36,2.79,2.79,0,0,1-1.46-1.09A3.12,3.12,0,0,1,746.2,132.91Z" transform="translate(-570.25 -116)"/><path class="cls-2" d="M745.47,133.64a10.79,10.79,0,0,0-1.46,1.09,9.56,9.56,0,0,0-1.83,2.19,8.92,8.92,0,0,0-1.09,2.91h.36c2,0,2.31,0,2.92,0,.92-.08.8-.23,1.83-.36a11.36,11.36,0,0,1,2.55,0c2.77.3,6.3,2.68,9.86,3.27s8-.42,9.13-2.91a8.42,8.42,0,0,0,.36-3.64c0-1.75,0-2.75-.73-3.64-.52-.69-.83-.51-2.55-1.83-1.34-1-1.21-1.16-1.83-1.45-.27-.13-1.43-.64-4,0a20.42,20.42,0,0,0-3.65,1.45C751.25,132.43,748.16,132,745.47,133.64Z" transform="translate(-570.25 -116)"/><g class="cls-3"><path class="cls-4" d="M741.66,140.05a9.51,9.51,0,0,1,2.71-5.19c.91-.85,2.45-1.54,5.63-2.26a37.22,37.22,0,0,0,5.91-1.55c1.78-.73,3.53-1.87,5.44-1.69a8.25,8.25,0,0,1,3.71,1.66,7.33,7.33,0,0,1,2.14,1.89,7.17,7.17,0,0,1,.8,4.1,6.39,6.39,0,0,1-.64,3.39,5.21,5.21,0,0,1-2.78,1.94,13.66,13.66,0,0,1-12.53-1.89,8.66,8.66,0,0,0-2.65-1.71,8.41,8.41,0,0,0-7.65,1.22S741.68,140.06,741.66,140.05Z" transform="translate(-570.25 -116)"/><path class="cls-4" d="M743,139.29c.27.6.07,1.07.24.55.1-.3.18-.59.29-.89a8.44,8.44,0,0,1,1.44-2.5,7.47,7.47,0,0,1,4-2c2.33-.63,4.76-.92,7-1.77s4.31-2.49,6.63-1.4a12.54,12.54,0,0,1,2.8,1.81,3.78,3.78,0,0,1,1.16,3,10.06,10.06,0,0,1-.14,2.9,3.36,3.36,0,0,1-2.53,2.08c-4.35,1.41-8.45.07-12-2.6a9.35,9.35,0,0,0-11.27.57c-1.45,1.28.67,3.39,2.12,2.12a6.3,6.3,0,0,1,8.21.35,14.84,14.84,0,0,0,3.41,2,15.12,15.12,0,0,0,7.61,1c2.41-.3,5.37-1.09,6.71-3.32,1.19-2,1.13-5.26.53-7.43-.71-2.51-3.24-4.21-5.52-5.24-2.79-1.26-5.15-.21-7.76.94s-5.62,1.45-8.4,2.27a9.45,9.45,0,0,0-5.4,3.52c-1,1.32-2.5,3.9-1.75,5.59S743.72,141,743,139.29Z" transform="translate(-570.25 -116)"/></g><path class="cls-5" d="M748.52,135.5a3.19,3.19,0,0,1-1.33-.94,2.09,2.09,0,0,1-.62-1.45,3.21,3.21,0,0,1,.74-1.54c.73-1,1.38-2.07,2-3.14a4.84,4.84,0,0,0,1-2.87c0-.35-.12-.76.14-1s.93,0,1.26.42c0-.68.18-1.53.85-1.7.18,0,.39,0,.54-.15a.67.67,0,0,0,.2-.38c.32-1.11.63-2.22,1-3.33l1,1.92c.08.16.18.34.36.37a.42.42,0,0,0,.43-.29,1.32,1.32,0,0,0,0-.56,5.11,5.11,0,0,1,1.44-3.6l.62,3.65a11,11,0,0,1,2.3-4.91l.75,2.87,1-2A1.44,1.44,0,0,0,764,118c.28-.06.61-.21.85,0a.82.82,0,0,1,.24.46l.44,1.73a4.59,4.59,0,0,1,.06,3.12,4.68,4.68,0,0,1-1.72,1.67l-3.53,2.38c-1.58,1.06-3.23,2.2-4,3.91a12.54,12.54,0,0,1-.62,1.34,1.73,1.73,0,0,1-1.14.86c-.4.05-.79-.09-1.19-.07a2.49,2.49,0,0,0-1.68,1.22c-.78,1.1-1,1.54-1.47,1.54-.25,0-.3-.17-1.23-.5C748.65,135.54,748.67,135.56,748.52,135.5Z" transform="translate(-570.25 -116)"/><path class="cls-6" d="M751.29,136.13c.92-.16,1.54,2.44,3.12,3.88,1,.9,2.44,1.12,5.34,1.56,2,.29,2.94.41,4.09,0a5.2,5.2,0,0,0,3.07-2.63,7.89,7.89,0,0,0,.59-3.34,11.93,11.93,0,0,0-.65-4.29,5.85,5.85,0,0,0-2.79-3.23,6.08,6.08,0,0,0-5.3.32,20.58,20.58,0,0,0-4.09,3.61c-.64.64-3.84,3.88-3.62,4.13C751.09,136.21,751.17,136.15,751.29,136.13Z" transform="translate(-570.25 -116)"/><path class="cls-7" d="M742.1,138.53a5.09,5.09,0,0,0-.49.81,4.89,4.89,0,0,0-.32.88c1.24-.07,2.31-.82,3.47-1.26a9.4,9.4,0,0,1,4.68-.36,28.08,28.08,0,0,1,4.57,1.24,2.38,2.38,0,0,0,0-2.48,3.63,3.63,0,0,0-2-1.57,7,7,0,0,0-2.58-.36,9.53,9.53,0,0,0-4.28.61A8.64,8.64,0,0,0,742.1,138.53Z" transform="translate(-570.25 -116)"/><path class="cls-7" d="M740.8,137.78a6.59,6.59,0,0,0-1,2,1.52,1.52,0,0,0,1.45,1.9c2.1-.18,3.77-1.63,5.89-1.74a17.61,17.61,0,0,1,6.43,1.3,1.53,1.53,0,0,0,1.7-.69,4.16,4.16,0,0,0-1.53-5.6,8.21,8.21,0,0,0-4.58-1.06,10.89,10.89,0,0,0-4.89.86,10,10,0,0,0-3.51,3,1.51,1.51,0,0,0,.54,2.05,1.53,1.53,0,0,0,2-.54,6.13,6.13,0,0,1,5-2.36,17.67,17.67,0,0,1,2.3.06l.41.08a4,4,0,0,1,.49.15,2.25,2.25,0,0,1,1.1.74.92.92,0,0,1,.07,1.12l1.69-.69a20.56,20.56,0,0,0-7-1.42,9.59,9.59,0,0,0-3.43.7,9.64,9.64,0,0,1-2.69,1.05l1.45,1.9a3.92,3.92,0,0,1,.65-1.33,1.51,1.51,0,0,0-.54-2A1.53,1.53,0,0,0,740.8,137.78Z" transform="translate(-570.25 -116)"/><path class="cls-8" d="M746.2,133.27a10,10,0,0,0-2.56,2.19,13.7,13.7,0,0,0-2.19,3.28c3.06-2.28,5.39-2.63,7-2.5,4.41.37,5.76,1.07,5.76,1.07a5.38,5.38,0,0,0,2.48.42c.36-.07.75-.27.81-.63a1,1,0,0,0-.24-.7c-2.15-3.3-4.63-3.83-4.63-3.83A8.89,8.89,0,0,0,746.2,133.27Z" transform="translate(-570.25 -116)"/><path class="cls-9" d="M855.59,233.57c.76-.25,1.85-1.4,4-3.7a40.68,40.68,0,0,0,3.47-4.23l-2.72.32c-.16-2.58-.27-5.35,1.12-7.53,1.24-2,3.5-3.09,4.69-5.08,1.79-3,.64-6.87,1.49-10.26,1-3.94,4.69-7.22,4.21-11.26a26.81,26.81,0,0,0-1.23-4,4.36,4.36,0,0,1,.48-4c.76-.89,2.17-1.47,2.12-2.64s-1.38-1.7-1.53-2.76,1-2.47.14-3.22c-.48-.42-1.23-.18-1.85,0a8.21,8.21,0,0,1-9.14-3.65,11.42,11.42,0,0,0-1.67-2.7c-.77-.74-2.16-1-2.84-.17a3.22,3.22,0,0,0-.37,2.18c.17,4.94-3.29,9.42-7.54,12s-9.22,3.52-14.06,4.56-9.8,2.23-13.83,5.11a4.13,4.13,0,0,0-1.65,1.89,3.43,3.43,0,0,0,.78,2.91,5.57,5.57,0,0,0,2.54,1.86C827.44,201.06,848.42,235.85,855.59,233.57Z" transform="translate(-570.25 -116)"/><path class="cls-10" d="M856,229.84c-4.45-24.39-30.21-36.29-43.75-42.55a10.75,10.75,0,0,0-6.47-1c-3.8.73-6.15,4.46-8,7.83s-3.85,7.17-3.09,11c.54,2.71,2.38,5,4.16,7.08,5,5.94,10,11.93,16.07,16.78A40.18,40.18,0,0,0,836,238.05a39.4,39.4,0,0,0,20.63-3.37A39.52,39.52,0,0,0,856,229.84Z" transform="translate(-570.25 -116)"/><path class="cls-11" d="M804.24,187.35c1.25,2.61-.29,5.91-1.59,7.63a9.82,9.82,0,0,1-6.87,3.69c4.88,7.55,12.72,12.67,20.62,17,2.31,1.26,4.86,2.74,5.55,5.26.8,2.91-1.2,6.24.2,8.92,1.53,2.92,5.68,2.76,9,2.49,10.18-.84,20.33,1.34,30.31,3.51-3.65-.7-7.19,2.25-8.47,5.73s-.85,7.31-.41,11,.85,7.52-.45,11-4.29,6.26-7.14,8.79a2.36,2.36,0,0,0-3.63-1.87c-.89.71-1.1,2-1.67,2.93-1.36,2.32-4.45,2.83-7.13,3.07a54.15,54.15,0,0,1-14-.13c-6.34-1.13-6.29-5.58-12.23-6.42-2.56-.36-4.07.06-5.29-1.16-2-2-.24-5.43-.32-8.79-.18-7.21-8.93-12.3-17.29-17.85-7-4.64-14.61-8.17-22.12-11.86-3.4-1.68-7-3.59-8.75-6.93-2.66-5.07,0-11.49,4.17-15.43s9.55-6.3,14.18-9.69c5-3.65,4.86-4.88,9.91-8.45,4.39-3.1,7.29-5.1,11.54-5.71C792.94,184,802,182.74,804.24,187.35Z" transform="translate(-570.25 -116)"/><path class="cls-12" d="M758.43,128.36" transform="translate(-570.25 -116)"/><path class="cls-7" d="M767.14,180.64a39,39,0,0,0,17.1,7.44,47.52,47.52,0,0,0,22.2-1.27,26.37,26.37,0,0,1-4.38-4.73,23,23,0,0,1-2.19-3.65c-1.35-2.8-1.23-4.14-2.2-6.92-.82-2.39-1.15-2.13-2.92-5.82-3.1-6.52-1.89-7-4-9.84,0,0-2.9-3.93-4.21-6.3a1.71,1.71,0,0,0-.11-.2l-.18-.32c-2.15-3.88-2.18-4.75-3.72-7.56-.8-1.48-1.58-2.68-2.92-4.74-.8-1.23-1.2-1.85-1.46-2.18a21.46,21.46,0,0,0-5.47-4.74,29.71,29.71,0,0,0-3.65-2.18c-2.91-1.44-4.53-2.25-6.39-2-3.11.4-5,3.48-5.48,4.37a6.53,6.53,0,0,1,4.38-1.1,10.35,10.35,0,0,1,2.19.73,5.36,5.36,0,0,1,1.65.91c.79.78.35,1.34,1.27,2.73a15.18,15.18,0,0,0,1.46,1.82c.76.81.9.8,1.1,1.1.83,1.26-.73,3.14-1.1,4.73-.84,3.63,4.63,5.18,5.45,9.6,1.13,6.16-7.29,15.23-12.53,18a2.87,2.87,0,0,0-1.45,1.3C758,173.24,766.48,180.11,767.14,180.64Z" transform="translate(-570.25 -116)"/><g class="cls-13"><path class="cls-14" d="M787.38,254.37l4.32,4.95a1.51,1.51,0,0,0,2.5-1.46s-.1-.28-.07-.3c0,.23,0,.27,0,.1v-.1c0-.31-.1.27,0,0a.83.83,0,0,1,0-.15c0-.1,0-.07-.05.12a1.43,1.43,0,0,1,.15-.27c-.13.15-.15.19-.08.1l.1-.11c.19-.22-.24.11,0,0l.13-.08-.12.05.1,0c.16,0,.13,0-.1,0a1.58,1.58,0,0,1,.31,0s-.37-.05,0,0-.22-.16,0,0l.08.05c.14.09.12.07,0-.06.06,0,.14.15.19.18s.05.05-.08-.11l.08.13c.06.1,0,.06,0-.13a.76.76,0,0,1,.06.2,1.52,1.52,0,0,0,1.85,1.05,1.54,1.54,0,0,0,1.05-1.85,3.48,3.48,0,0,0-4.28-2.36,3.55,3.55,0,0,0-2.25,4.36l2.51-1.46-4.32-4.95a1.5,1.5,0,0,0-2.12,0,1.53,1.53,0,0,0,0,2.12Z" transform="translate(-570.25 -116)"/></g><path class="cls-14" d="M789.83,190.63a3.78,3.78,0,0,1,1.31,2.33c.14,2.4-3.47,4.08-6.93,6.39a132.4,132.4,0,0,1-17.42,9.8c-3.76,1.76-7.94,3.66-9.64,7.44-1.78,3.95-.09,8.78,3,11.83s7.29,4.64,11.43,5.94,8.41,2.43,12.06,4.77c3.87,2.48,6.9,6.26,11.14,8,2.79,1.17,5.88,1.38,8.77,2.28s5.78,2.84,6.4,5.79c-6.35,2.05-5.16,13.13-11.37,15.59a8.94,8.94,0,0,1-6.53-.46c-10.47-4.18-15.41-16.42-25-22.3-4.85-3-10.67-4.16-15.31-7.44-6-4.28-9.31-11.68-10-19s1-14.74,3.11-21.82c1.33-4.4,3-9,6.56-11.91,2.8-2.33,5.23-1.15,17.36-3.91A33.42,33.42,0,0,1,773,183C781.74,182.21,787.85,188.58,789.83,190.63Z" transform="translate(-570.25 -116)"/><path class="cls-14" d="M788.76,191.69c.46.5,1.06,1.06.8,1.78a4.07,4.07,0,0,1-1.44,1.53c-1.59,1.23-3.38,2.2-5,3.31-3.63,2.39-7.36,4.62-11.2,6.65-3.4,1.79-7,3.22-10.34,5.17-2.91,1.72-5.58,4.19-6.35,7.62a12.46,12.46,0,0,0,2.33,9.86,20.41,20.41,0,0,0,8.87,6.47c3.58,1.51,7.36,2.41,11,3.72a31.69,31.69,0,0,1,9.86,6,36.71,36.71,0,0,0,4.86,3.65,20.73,20.73,0,0,0,6.4,2.32c3.62.78,8.94,1.52,10,5.83l1-1.84c-4.67,1.62-5.86,6.6-7.57,10.7-.76,1.81-1.74,3.84-3.57,4.77-2.87,1.46-6.5-.37-9-1.9-5-3.11-8.59-8-12.42-12.32a49.66,49.66,0,0,0-6.25-6.14,35.63,35.63,0,0,0-8.58-4.86c-3.2-1.33-6.5-2.52-9.39-4.48a20.55,20.55,0,0,1-6.28-7c-3.49-6.26-4-13.64-3-20.62a78.8,78.8,0,0,1,2.76-11.74,28.64,28.64,0,0,1,4-9,12.13,12.13,0,0,1,2.47-2.49,3.74,3.74,0,0,1,1.32-.62,25.36,25.36,0,0,1,4.25-.74c2.78-.37,5.55-.82,8.31-1.39q2.52-.51,5-1.14l.91-.22.3-.07c.34-.06-.24,0,0,0,5.44-.51,10.38,2,14.27,5.61.54.51,1.07,1,1.58,1.58,1.35,1.4,3.46-.72,2.13-2.12-3.41-3.54-7.51-6.59-12.39-7.69a15.81,15.81,0,0,0-7.11-.12c-3.17.78-6.35,1.49-9.57,2-2.22.38-4.45.61-6.66,1a10,10,0,0,0-3.8,1.26c-5.71,3.6-7.62,11.6-9.2,17.67-2,7.65-3,15.84-.94,23.59,1.81,6.7,5.86,12.68,12,16.06,3.23,1.77,6.76,2.9,10.09,4.47a29.44,29.44,0,0,1,8.07,5.65c4.5,4.36,8.05,9.62,12.81,13.72,4.36,3.76,11.85,8.21,17.15,3.69,3.75-3.21,3.77-8.67,6.66-12.43a5.06,5.06,0,0,1,2.33-1.75,1.54,1.54,0,0,0,1-1.85c-.86-3.51-4-5.7-7.28-6.78-3.93-1.29-8-1.4-11.49-3.79-3.13-2.11-5.7-5-9-6.89-3.5-2-7.44-3.14-11.27-4.33-3.66-1.15-7.49-2.45-10.44-5-2.55-2.21-4.51-5.67-3.94-9.16s3.86-5.63,6.85-7.14c3.66-1.85,7.39-3.53,11-5.52,4.29-2.38,8.4-5.05,12.5-7.73,1.45-1,3.08-2,3.88-3.63,1-2,.07-3.8-1.32-5.29S787.45,190.29,788.76,191.69Z" transform="translate(-570.25 -116)"/><path class="cls-11" d="M789.22,191.77c-2.43-.1-12.7-4.54-17.43-5.65s-8.46-.07-12.71,1a36.91,36.91,0,0,0-11.79,5.47c.79-1.59,2.06-4.14,3.65-7.29,2.92-5.73,3.31-6.33,4-8.22a30.15,30.15,0,0,0,2.2-10c.08-2.58-.22-3.3,0-7.28.13-2.34.3-3.13.37-5.1a39.7,39.7,0,0,0-.37-6.92,7,7,0,0,1,4-1.82c2.33-.15,3.41,1.27,4.93,1s3.08-1.74,4.56-7.6c5.8,14.44,5.61,21.06,4.08,24.39-.36.77-1.78,3.46-.72,5.85.73,1.63,2.52,2.44,4.08,3.3a27.61,27.61,0,0,1,11,13.23c.29.76,1.75,4.64.65,5.4A.89.89,0,0,1,789.22,191.77Z" transform="translate(-570.25 -116)"/><path class="cls-15" d="M774.15,233.18c5,.93,10.67,2,15.12,6.41,2.68,2.67,1.63,2.78,3.69,5,3.47,3.71,9.68,3.39,13.55,6.7a3.85,3.85,0,0,1,1.51,2.46c.1,1.24-.74,2.34-1.4,3.39-2.14,3.38-2.81,7.45-4.32,11.15s-4.41,7.35-8.4,7.69c-2.76.24-5.39-1.19-7.65-2.8s-4.39-3.5-7-4.41c-2.91-1-6.42-.87-8.63-3-2.56-2.49-2-6.68-3.32-10-2.58-6.61-11.59-8.38-15.27-14.46a2.17,2.17,0,0,1-.39-1.13c0-.95,1.17-1.52,2.1-1.33a5.61,5.61,0,0,1,2.38,1.49,27.91,27.91,0,0,0,13.59,6.43l-5.57-3.87c-2-1.41-4.31-3.3-4.07-5.76.2-2,2.26-3.22,2.6-3.43,1.08-.65,2.16-.84,4.37-.89A29.5,29.5,0,0,1,774.15,233.18Z" transform="translate(-570.25 -116)"/><path class="cls-15" d="M801.31,266a7.26,7.26,0,0,0,6.32,3.84c1.27,0,2.69-.3,3.7.48.81.61,1.11,1.75,2,2.24a2.35,2.35,0,0,0,2.17-.06,6.79,6.79,0,0,0,1.76-1.4,4.2,4.2,0,0,0,5.08,2.62,13.56,13.56,0,0,1,1.79-.62c1.12-.16,2.21.47,3.34.55,2.3.15,4-1.92,5.4-3.77a10.36,10.36,0,0,1-1.17,8.75,1.63,1.63,0,0,1-.9.8c-.55.14-1.07-.25-1.56-.54a6.68,6.68,0,0,0-4.77-.63,14.53,14.53,0,0,0-4.5,2,6.43,6.43,0,0,1-2.73,1.17,4,4,0,0,1-3.33-1.65,11.88,11.88,0,0,1-1.7-3.44l-1.45,3.33a64.79,64.79,0,0,0-9-7.15,5.61,5.61,0,0,1-1.63-1.26,3.52,3.52,0,0,1-.43-3.13,10.56,10.56,0,0,1,1.53-2.89l.32.71" transform="translate(-570.25 -116)"/><path class="cls-16" d="M783.62,181.89" transform="translate(-570.25 -116)"/><path class="cls-2" d="M749.12,139.47a10.45,10.45,0,0,0-.37,2.18,7.76,7.76,0,0,0,.37,3.28,7,7,0,0,0,3.29,3.64,4.33,4.33,0,0,0,2.19.73,3.82,3.82,0,0,0,3.28-1.82c1.15-2.24-1.27-5.78-3.65-6.92a13.38,13.38,0,0,0-2.19-.73A13.6,13.6,0,0,0,749.12,139.47Z" transform="translate(-570.25 -116)"/><path class="cls-17" d="M749.16,139.36a14.36,14.36,0,0,0,.27,3.09c.35,1.76.67,3.44,2.06,4.85a6.74,6.74,0,0,0,3.65,1.82,2.69,2.69,0,0,0,2.21-.24A2,2,0,0,0,758,148c.3-.92-.24-1.83-.9-2.89a17.31,17.31,0,0,0-2.72-3.23l-1.09-1.09-.73-.73a5.61,5.61,0,0,0-.73-.73,2.31,2.31,0,0,0-1.1-.36A2.49,2.49,0,0,0,749.16,139.36Z" transform="translate(-570.25 -116)"/><path class="cls-17" d="M747.66,139.36a18.8,18.8,0,0,0,.45,4.1,10.31,10.31,0,0,0,1.4,3.76,8.08,8.08,0,0,0,6.73,3.49,3.4,3.4,0,0,0,2.81-1.48,3.86,3.86,0,0,0-.14-4.12,22,22,0,0,0-4-4.86c-.42-.42-.84-.83-1.25-1.25a8,8,0,0,0-1-1,3.93,3.93,0,0,0-4.27,0,1.53,1.53,0,0,0-.54,2.05,1.51,1.51,0,0,0,2,.54l.36-.21c-.34.18,0,0,.11,0s.27,0,0,0a1.08,1.08,0,0,1,.4,0s-.43-.11-.09,0l.21.07.15.09c-.22-.18-.27-.22-.16-.12a5.26,5.26,0,0,0,.61.64l.91.9a27.8,27.8,0,0,1,3,3.21,14,14,0,0,1,1,1.57,1.69,1.69,0,0,1,.21.55c0-.05-.05-.28,0,0s0-.17,0,.2c0,.21-.05-.15.06-.14l-.1.19c.19-.34-.06.16-.12.11s.23-.19.13-.1c-.29.23,0-.09.06,0s-.8.08-.24.08a5.94,5.94,0,0,1-2.13-.37l-.24-.09c.31.12-.13-.07-.15-.08-.21-.11-.4-.22-.6-.35a3,3,0,0,1-.49-.39c-.11-.1-.22-.2-.32-.31s-.32-.38-.19-.21a4.53,4.53,0,0,1-.5-.81c-.06-.11-.12-.23-.17-.34h0a2.47,2.47,0,0,1-.1-.29,13.22,13.22,0,0,1-.44-1.64c-.13-.63-.26-1.29-.31-1.81a15.17,15.17,0,0,1-.06-1.65,1.5,1.5,0,0,0-3,0Z" transform="translate(-570.25 -116)"/><path class="cls-2" d="M766.28,138a2.53,2.53,0,0,1-.73-2.19,2.81,2.81,0,0,1,1.46-2.18,2.19,2.19,0,0,1,3.28,1.82,2.7,2.7,0,0,1-.73,2.18A2.57,2.57,0,0,1,766.28,138Z" transform="translate(-570.25 -116)"/><path class="cls-18" d="M767.22,138.09a2.31,2.31,0,0,1-1.55-2.63,2.2,2.2,0,0,1,4.32.86,2.32,2.32,0,0,1-2.44,1.84A1.94,1.94,0,0,1,767.22,138.09Z" transform="translate(-570.25 -116)"/><path class="cls-18" d="M767.62,136.64a.85.85,0,0,1-.17-.06l.35.15a2.36,2.36,0,0,1-.48-.29l.3.24a2.73,2.73,0,0,1-.48-.48l.24.31a2.55,2.55,0,0,1-.3-.5l.15.35a2.38,2.38,0,0,1-.15-.52l0,.4a2.81,2.81,0,0,1,0-.58l0,.4a2.39,2.39,0,0,1,.15-.54l-.15.35a3,3,0,0,1,.26-.46l-.23.31a2,2,0,0,1,.41-.42l-.31.24a2.88,2.88,0,0,1,.5-.3l-.35.15a2.73,2.73,0,0,1,.56-.15l-.4,0a3,3,0,0,1,.6,0l-.4,0a3.18,3.18,0,0,1,.53.14l-.36-.15a2.36,2.36,0,0,1,.51.3l-.3-.24a2.71,2.71,0,0,1,.41.42l-.24-.31a2.58,2.58,0,0,1,.29.51l-.15-.36a2.73,2.73,0,0,1,.14.51l-.06-.4a2.41,2.41,0,0,1,0,.6l0-.4a2.73,2.73,0,0,1-.15.56l.15-.36a2.3,2.3,0,0,1-.25.43l.23-.31a2.59,2.59,0,0,1-.4.41l.3-.24a2.37,2.37,0,0,1-.53.31l.36-.15a2.72,2.72,0,0,1-.69.19l.4,0a2.67,2.67,0,0,1-.49,0l.4,0a1.22,1.22,0,0,1-.26-.06,1.5,1.5,0,0,0-.8,2.9,3.86,3.86,0,0,0,3.66-1,3.66,3.66,0,0,0,.57-4.32,3.61,3.61,0,0,0-1.53-1.49,4,4,0,0,0-2.51-.32,3.61,3.61,0,0,0-1.87,1,3.76,3.76,0,0,0-1,2.31,3.53,3.53,0,0,0,.78,2.44,3.93,3.93,0,0,0,1.92,1.37,1.51,1.51,0,0,0,1.85-1A1.54,1.54,0,0,0,767.62,136.64Z" transform="translate(-570.25 -116)"/><path class="cls-19" d="M746.75,134.55c-.18.34.37,1.14,1.09,1.46,1.24.53,3.1-.34,3.29-1.46.1-.62-.29-1.39-.73-1.46s-.59.67-1.46,1.09C747.88,134.71,747,134.17,746.75,134.55Z" transform="translate(-570.25 -116)"/><path class="cls-2" d="M762.63,147.48a3.21,3.21,0,0,0,1.46.36,4.25,4.25,0,0,0,2.92-1.46,5,5,0,0,0,1.09-1.45c.44-.88.31-1.32.73-2.19a5.75,5.75,0,0,1,1.1-1.45c.6-.73,1.08-2.13.36-5.1l-.73.36a10.62,10.62,0,0,0-1.82,1.09,7.3,7.3,0,0,0-1.1,1.1,5.35,5.35,0,0,0-1.09,1.82c-.32,1,0,1.66-.37,1.82s-.66-.34-1.46-.73c-.08,0-1.78-.86-2.55-.36C760,142.05,760.42,146.28,762.63,147.48Z" transform="translate(-570.25 -116)"/><path class="cls-20" d="M762.2,147.07a5.88,5.88,0,0,1-1.8-2.19,2.63,2.63,0,0,1-.28-1.73,2.17,2.17,0,0,1,2.16-1.48,4.4,4.4,0,0,1,2.57,1.05c.1.07.23.16.34.1a.37.37,0,0,0,.12-.29,6,6,0,0,1,1.78-3.5,17.87,17.87,0,0,1,3.16-2.44,11.41,11.41,0,0,1-.12,3.09,15.64,15.64,0,0,1-.83,2.65,11.07,11.07,0,0,1-1.36,2.81,5.82,5.82,0,0,1-5.66,2.21" transform="translate(-570.25 -116)"/><path class="cls-20" d="M763,145.78a6.44,6.44,0,0,1-.67-.69c.12.15-.19-.26-.17-.24-.09-.14-.18-.28-.26-.43a2.78,2.78,0,0,1-.28-.74c0-.18,0-.12,0-.27-.13.31.14-.24,0,.05.07-.13.21-.19.42-.25l.22-.05c-.15,0-.14,0,0,0s0,0,.29,0a2.56,2.56,0,0,1,.86.36,5.22,5.22,0,0,0,1.13.68,1.71,1.71,0,0,0,1.69-.36,1.83,1.83,0,0,0,.48-.79,4.93,4.93,0,0,0,.08-.5,4.24,4.24,0,0,1,.8-1.86,12.7,12.7,0,0,1,3.4-2.85l-2.26-1.29a10,10,0,0,1-.36,3.85,18.07,18.07,0,0,1-1.3,3.25,4.12,4.12,0,0,1-2,1.86,3.2,3.2,0,0,1-.54.2,4.92,4.92,0,0,1-.78.18c.17,0,0,0-.08,0l-.39,0-.4,0c-.3,0,.08,0-.24,0a1.53,1.53,0,0,0-1.84,1,1.51,1.51,0,0,0,1,1.85,7.41,7.41,0,0,0,7.51-3.13,17.39,17.39,0,0,0,1.8-4.15,12.49,12.49,0,0,0,.56-4.93,1.52,1.52,0,0,0-2.26-1.3,17.91,17.91,0,0,0-3.76,3,8.51,8.51,0,0,0-1.28,1.91,8.25,8.25,0,0,0-.44,1.17,4.64,4.64,0,0,0-.11.51c0,.16,0,.32-.07.48,0-.15,0-.15,0,0l.38-.67-.07.08.66-.39-.11,0h.79c.26.09,0,0-.08-.12L765,141a6.71,6.71,0,0,0-.8-.41,5.17,5.17,0,0,0-1.85-.44,3.87,3.87,0,0,0-3.27,1.64c-1.59,2.31.52,5.16,2.34,6.56a1.51,1.51,0,0,0,2-.54,1.53,1.53,0,0,0-.54-2.05Z" transform="translate(-570.25 -116)"/><path class="cls-5" d="M753.14,146a4.77,4.77,0,0,0,1.46,2.55,6,6,0,0,0,6.57-.36,3.62,3.62,0,0,0,1.46-2.55c0-.88-.61-1.11-1.1-2.55a7.42,7.42,0,0,1-.36-1.82c-.17,0-.43,0-.73,0-1.45,0-3.18-.11-4.38-1.1-.83-.67-.79-1.28-1.83-1.82a3.68,3.68,0,0,0-1.09-.36c0,.17,0,.42,0,.73a12.28,12.28,0,0,1-.37,2.55A9.3,9.3,0,0,0,753.14,146Z" transform="translate(-570.25 -116)"/><path class="cls-21" d="M753.94,133.76c2.59.94,4.27,3.38,6.53,4.94,1.51,1.05,3.32,1.72,4.58,3.06a12.43,12.43,0,0,0,1.26-2.69,4.24,4.24,0,0,0-.12-2.92c-.1-.2-.23-.41-.44-.46a.63.63,0,0,0-.68.37,4.23,4.23,0,0,0-.27.78,2.65,2.65,0,0,1-3,1.38,7.61,7.61,0,0,1-3.13-1.75,3.59,3.59,0,0,1-1.49-1.83,13.8,13.8,0,0,1,0-1.82,13.29,13.29,0,0,1-.2-1.39,2.92,2.92,0,0,1,1-1.88,7.89,7.89,0,0,0,1.48-1.63c.06-.1.11-.25,0-.33s-.25,0-.36.06c-1.42,1-2.92,2.18-3.46,3.85a10.39,10.39,0,0,1-.43,1.37,1.33,1.33,0,0,1-1.1.82" transform="translate(-570.25 -116)"/><path class="cls-21" d="M753.55,135.21c1.92.73,3.29,2.47,4.83,3.76a19.19,19.19,0,0,0,2.91,2,11.42,11.42,0,0,1,2.69,1.86,1.52,1.52,0,0,0,2.36-.3c1.22-2.15,2.47-4.89,1.06-7.28a2.09,2.09,0,0,0-3.63.06c-.23.4-.26,1-.52,1.2a1.44,1.44,0,0,1-.66.27,4.15,4.15,0,0,1-2.66-1.18,4.63,4.63,0,0,1-1.22-1.07c-.23-.38-.08-.89-.07-1.31a13.9,13.9,0,0,1-.21-1.78c.06-.35.43-.66.67-.9.89-.87,2.24-1.93,1.8-3.34a1.49,1.49,0,0,0-1-1,2.86,2.86,0,0,0-2.4.88,12.73,12.73,0,0,0-1.78,1.58,7.25,7.25,0,0,0-1.26,1.92,9.3,9.3,0,0,0-.39,1.16,3.54,3.54,0,0,0-.11.44c-.06.31-.41.14.19.07a1.54,1.54,0,0,0-1.5,1.5,1.51,1.51,0,0,0,1.5,1.5,2.87,2.87,0,0,0,2.29-1.38,18.4,18.4,0,0,0,.78-2.15,6.78,6.78,0,0,1,2.86-2.8l-1.16.15.18,0-1-1,0,.16v-.8c-.08.23-.49.5-.68.68a11.89,11.89,0,0,0-.93.95,3.84,3.84,0,0,0-1,2.92,11.55,11.55,0,0,1,.17,1.44,5.7,5.7,0,0,0,.07,1.7,4.56,4.56,0,0,0,1.69,2.36c1.5,1.21,3.24,2.53,5.28,2.36a4.34,4.34,0,0,0,2.41-.9,3.62,3.62,0,0,0,.89-1c.15-.26.24-.87.44-1l-.66.39h0L765,137c-.33-.15-.14-.31-.08,0s.08.33.1.5a3.1,3.1,0,0,1-.12,1.09,10.3,10.3,0,0,1-1.14,2.45l2.36-.31c-1.71-1.75-4.11-2.53-5.94-4.14s-3.49-3.35-5.83-4.24a1.51,1.51,0,0,0-1.84,1.05,1.53,1.53,0,0,0,1,1.84Z" transform="translate(-570.25 -116)"/><path class="cls-22" d="M757,133.46a6.38,6.38,0,0,0,1.82,1.82,4,4,0,0,0,3.65.36,3.32,3.32,0,0,0,1.83-2.55,3.39,3.39,0,0,0-1.46-2.91,3.23,3.23,0,0,0-3.65,0c-.76.63-.65,1.55-1.46,1.82s-1.28-.25-1.46,0S756.62,133,757,133.46Z" transform="translate(-570.25 -116)"/><path class="cls-23" d="M758.79,131.63a2.07,2.07,0,0,0-.36,1.46,2.2,2.2,0,0,0,1.09,1.46,2.5,2.5,0,0,0,1.83.36,2.27,2.27,0,0,0,1.82-2.18,2.35,2.35,0,0,0-1.46-1.82A2.53,2.53,0,0,0,758.79,131.63Z" transform="translate(-570.25 -116)"/><path class="cls-24" d="M760.25,133.46a.82.82,0,1,0,1.1-1.1.82.82,0,0,0-1.1.37A.92.92,0,0,0,760.25,133.46Z" transform="translate(-570.25 -116)"/><path id="left" class="cls-1" d="M720.26,270.69c.21-2.12,1.6-2.43,5.67-6.79,3.67-3.93,9.29-9.95,11.33-18.09a48.59,48.59,0,0,0,1.13-9c.24-3.88,0-4.75,0-9,.05-9.52,1.36-10.2,1.14-18.09-.16-5.5-.86-7.56,0-7.91,1.05-.44,3.63,4.34,6.8,10.17,1.8,3.32,1,2.24,2.26,4.52,1.63,2.91,2.63,4.1,2.27,5.65-.27,1.17-1,1.22-1.13,2.27-.24,1.82,1.62,4.41,3.4,4.52,3.84.23,5.46-11.17,10.2-11.31a3.84,3.84,0,0,1,3.4,2.26c1,2.65-3.16,4.74-5.67,11.31-1.62,4.24-.44,4.84-2.27,7.91s-3.69,3.48-5.66,6.78a19.63,19.63,0,0,0-2.27,6.79c-.83,3.86-1.06,3.08-10.2,24.87-1.66,3.95-2.08,5-3.4,5.65C731.74,285.85,719.61,277.22,720.26,270.69Z" transform="translate(-570.25 -116)"/><path id="right" class="cls-1" d="M812.06,265V248.08a23.58,23.58,0,0,0,6.8-3.4c4-2.93,4.56-5.39,11.33-15.82,2.22-3.42,4.53-6.79,6.8-10.18.28-.43,4.24-6.35,4.53-6.78a5.06,5.06,0,0,0-2.27-1.13c-3.08-.63-5.52,2.09-5.66,2.26.66-1.45,1.42-3,2.26-4.52,1.13-2.07,2.27-3.95,3.4-5.65a5.73,5.73,0,0,0-3.4-3.4c-2.42-.73-5.37.6-6.8,3.4.17-1,1.13-6.76,1.14-6.79.59-3.54.82-4.93,0-5.65s-2.63-.25-3.4,0c-3.42,1.12-5.11,4.4-5.67,5.65,0-.79.07-2,0-3.39-.19-3.82-.88-4.36-1.13-4.52a2.56,2.56,0,0,0-2.27,0c-5.06,1.72-10.2,11.3-10.2,11.3a139.22,139.22,0,0,0-6.8,14.7,10.46,10.46,0,0,1-3.4-2.26c-1.6-1.61-1.63-2.78-3.4-5.65-.61-1-1.59-2.13-3.4-4.52-2.45-3.25-3.19-4.18-4.53-4.53a5,5,0,0,0-4.53,1.13c-2.27,2.45.21,9.21,5.66,17a30.52,30.52,0,0,1,1.14,9.05c0,.14-.18,3.58,0,7.3,0,.32,0,.45,0,.61a10.73,10.73,0,0,0,2.26,5.65c0,1.55,0,3.9,0,6.78,0,6.9,0,7.38,0,7.92C790.88,255.93,795,260.38,812.06,265Z" transform="translate(-570.25 -116)"/><path class="cls-1" d="M808.66,218.68" transform="translate(-570.25 -116)"/><path class="cls-25" d="M788.26,199.46a8.1,8.1,0,0,0-1.14-1.13c-.19-.15-1.82-1.47-2.26-1.13-.73.56,2,5.27,2.26,5.66,1.07,1.8,1.21,1.67,2.27,3.39,1.86,3,1.88,4.17,3.4,6.78a25.12,25.12,0,0,0,3.4,4.52,24.5,24.5,0,0,0-2.27-10.17C793,205.46,791.44,203.46,788.26,199.46Z" transform="translate(-570.25 -116)"/><path class="cls-25" d="M820,188.16c-3.24-.3-5.34,12.31-9.11,17.63a5.27,5.27,0,0,0-1.11,3.12,5.1,5.1,0,0,0,1.15,3c3.34-6,6-10.5,7.94-13.57s4-6.43,2.72-8.8C821.43,189.25,820.88,188.24,820,188.16Z" transform="translate(-570.25 -116)"/><path class="cls-25" d="M817.05,214.11c1.35-6.45,4.89-9.19,7.47-15.78.61-1.56,1.44-3,1.92-4.65.54-1.82.67-3,1.48-3.26s1.75.4,2.27,1.13c.84,1.2.52,2.78,0,4.52a37.52,37.52,0,0,1-3.4,7.92c-2.34,4-4.37,7.08-5.67,9-1.87,2.82-3.43,5.15-4.53,6.78A22.92,22.92,0,0,1,817.05,214.11Z" transform="translate(-570.25 -116)"/><path class="cls-25" d="M800.72,256a10,10,0,0,1-.78-2.06,8.53,8.53,0,0,1-.45-3.86c.42-1.76,2-1.76,3.57-3.46,3-3.32,1.43-8.14,3.33-8.71,1.21-.36,2.17,1.53,3.4,1.13,1.88-.61,1.34-5.59,2.1-5.68s2.8,4.52,2.45,10.14c-.21,3.46-1,5.15-2.82,10.28A37.34,37.34,0,0,0,809,264.11a64.25,64.25,0,0,1-7.21-6.61A10.91,10.91,0,0,1,800.72,256Z" transform="translate(-570.25 -116)"/><path class="cls-25" d="M833.6,200.7c1.1-.93,3.29-.46,4.6.63a2.45,2.45,0,0,1,1,1.53,3.07,3.07,0,0,1-1.13,2.26c-1.28,1.38-2.11,3.14-3.4,4.52a41.86,41.86,0,0,0-5.61,7.93c.35-1.6,3-13.71,4-16.13A1.75,1.75,0,0,1,833.6,200.7Z" transform="translate(-570.25 -116)"/><path class="cls-25" d="M797.32,225.47" transform="translate(-570.25 -116)"/><path class="cls-25" d="M835.57,215.65s2.31-3.1,4.81-4.16c.23-.09.94-.41,1-.13a.9.9,0,0,1-.21.7l-9.86,14.54a19.29,19.29,0,0,1,1.28-6A18.67,18.67,0,0,1,835.57,215.65Z" transform="translate(-570.25 -116)"/><path class="cls-26" d="M829.05,202.86c-2.71,2.71-5.78,9.21-5.78,9.21a70.38,70.38,0,0,1-5.61,9.7c5.31-6.85,13.15-17.25,13.65-19.71,0-.15.27-1.37,0-1.47s-.44.38-1.13,1.14S829.25,202.66,829.05,202.86Z" transform="translate(-570.25 -116)"/><path class="cls-26" d="M817.14,199.76a54.75,54.75,0,0,0-3.54,6.18,53.51,53.51,0,0,0-2.7,6.55q5.08-7.69,9.62-15.71l-2.8,2.68h0Z" transform="translate(-570.25 -116)"/><g class="cls-27"><path class="cls-28" d="M794.57,251.23a71.25,71.25,0,0,1,8.74-12.18c1.2-1.35,2.81-2.77,4.58-2.37s3,2.51,4.77,2.16a3.78,3.78,0,0,0,1.89-1.36l11.21-12.36c1.4-1.55,2.88-3.25,3.13-5.33l-6.13,3.92a9.82,9.82,0,0,1-2.73,1.36,3.29,3.29,0,0,1-2.91-.48c-1.17-1-1.18-2.77-.73-4.21s1.25-2.79,1.42-4.29-.65-3.29-2.16-3.46a3.24,3.24,0,0,0-2.37.94,20,20,0,0,1-1.95,1.74,2.52,2.52,0,0,1-2.48.34,1.37,1.37,0,0,1-.36-2.17c-2.06.19-3.89,1.31-5.75,2.23s-4,1.67-6,1.07-3.45-2.58-4.43-4.51-1.78-4-3.35-5.52a1.49,1.49,0,0,0-1-.52,1.18,1.18,0,0,0-1,1.15,3.55,3.55,0,0,0,.43,1.64,32.82,32.82,0,0,1,2.48,15c-.25,3.57-1.07,7.29.19,10.64.79,2.11,2.33,3.86,3.31,5.89a12.21,12.21,0,0,1,0,10.4" transform="translate(-570.25 -116)"/></g><g class="cls-29"><path class="cls-26" d="M817.64,235.47c1.14-3.64.81-3.85,1.79-5.93a21.25,21.25,0,0,1,3.45-5.15c1.28,1.43-.58,4.18.86,5.45.79.7,2,.38,3,0-3.2,6.71-10.46,11.1-12.69,18.2,0-.2,0-.5.08-.86C814.63,242.54,816,240.62,817.64,235.47Z" transform="translate(-570.25 -116)"/></g><path class="cls-30" d="M740.83,237.63c0-3,.12-5.52.17-7.17a3.81,3.81,0,0,1,1.19,1.5,8.38,8.38,0,0,1,.57,1.88,10.32,10.32,0,0,0,1.3,2.93c.94,1.63,1.6,2.79,2.59,2.9s1.7-.76,2.21-1.32c3.42-3.83,5.8-7.58,8.8-10.62.73-.74,2.3-2.33,2.71-2s-.91,3.16-1.65,4.67c-7,14.17-10.26,21.36-11.4,23.72-1.27,2.66-2.64,5.43-5,7.19-1,.75-2.58,1.22-3.42.28-.7-.78-.39-2-.69-3s-1-1.54-1.28-2.4c-.46-1.39.23-2.69.73-3.79a42.1,42.1,0,0,0,3-8.79C740.84,242.56,740.75,242.53,740.83,237.63Z" transform="translate(-570.25 -116)"/><path class="cls-31" d="M724.94,267.58c-.1-.79,1.07-1.92,3.41-4.17,2.12-2,3.19-3.16,4.16-3.17,1.75,0,3.46,1.48,5.09.83a4.23,4.23,0,0,0,1.63-1.49c3.88-5,8-7.41,13.95-18.09a37.92,37.92,0,0,0,3.35-7c.59-1.75,1.32-4.45,2.26-7.91a16,16,0,0,1,3-5.66A3.89,3.89,0,0,1,763,220c.93-.45,2.28-.65,2.58-.19s-.78,1.84-1.13,2.26c-3.21,3.89-3.11,10-5.67,17-1.64,4.44-2,2.76-5.66,10.18-8,16.21-12,24.32-12.53,25.85a2.05,2.05,0,0,1-.87,1.16c-.93.47-1.89-.53-2.61-1.29,0,0-1.82-1.13-5.37-3.32C727.13,268.76,725.12,269,724.94,267.58Z" transform="translate(-570.25 -116)"/><path class="cls-25" d="M748.31,226c-1.56-4.11-2.4-2.47-6.55-14.73a29.3,29.3,0,0,1-1.27-5.86c-.11-1-.4-3.52.17-3.68.33-.1.81.62,1.13,1.13a29.11,29.11,0,0,1,3.4,6.78c1.2,4.1,1,6.37,2.27,6.78.89.28,1.78-.5,2.27,0,.32.34.1.87,0,2.26-.06.75,0,1.51,0,2.26v4.53c.08,1.48.22,2.17,0,2.26S748.53,226.59,748.31,226Z" transform="translate(-570.25 -116)"/><path class="cls-32" d="M603,481c.4-2.26.74-4.58,1-7a115,115,0,0,0-3.86-43.93,21.89,21.89,0,0,1-3.4-6.79c-2.35-7.9.56-15.23,4.53-24.87a104.18,104.18,0,0,1,6.8-13.56,64.17,64.17,0,0,0,9.07-3.4c5.9-2.74,7.32-4.53,11.33-6.78,2-1.14,16.39-9.21,28.33-4.52,3.43,1.35,5.73,3.38,7.93,2.26s1.58-3.78,3.4-9a15,15,0,0,1,.57-1.46,30.73,30.73,0,0,1,2.89-5.09c3.51-4.85,5.16-4.91,6.74-8.15.65-1.32,2.29-4.7,1.14-7.91-.83-2.31-2.54-2.83-6.8-6.79-2-1.85-3.54-3.45-4.54-4.52,2.53-2.34,6.12-5.78,10.2-10.17,4.56-4.89,7.6-8.68,12.47-14.7s8.42-10.79,11.33-14.7c2.07-2.78,3.79-5.15,5.67-7.91,1-1.4,1.73-2.57,2.26-3.39L722.53,265a81.76,81.76,0,0,1,7.93,4.53,84,84,0,0,1,18.13,15.82q-1.7,2.22-3.4,4.52-3,4-5.66,7.92a54.73,54.73,0,0,1-6.8,7.91c-4.3,4.12-5.6,4-7.93,6.78-3.81,4.53-1.94,6.7-5.67,14.7-.57,1.22-1,2-7.93,12.44-2.75,4.13-5.08,7.61-6.8,10.17A17.11,17.11,0,0,0,714.6,351c3.65-.8,4.35-4.26,13.6-13.57l1.13-1.13,17-16.95c1.14-2.3,3-5.92,5.66-10.18,6.09-9.82,11.76-16.41,13.6-18.09,6.68-6,15.58-17.6,24.93-41.82a24.24,24.24,0,0,1,10.2,2.26c3.45,1.62,3.89,2.89,10.2,7.91,7.07,5.62,8.67,5.74,9.07,7.91.49,2.68-1.55,4.54-7.93,12.44,0,0-3.48,4.3-7.94,10.17-5.62,7.41-9.27,12.22-11.33,18.09-3.59,10.22,1.39,12.95-1.13,22.61-2.26,8.67-7.59,11.54-18.13,22.61-8.59,9-4.88,6.92-21.54,27.13-14.72,17.87-19,21.19-31.73,37.31-6,7.55-10.6,13.9-13.6,18.09q1.15,3.92,2.27,7.91Q714.12,462.21,718,480Z" transform="translate(-570.25 -116)"/><g class="cls-33"><path class="cls-34" d="M754,321.09c5.73-.55,15.48,16,14.23,31.06-.34,4.17-.49,12.79-18.79,31.07-8.71,8.69-18.5,16.38-26,26.1C700.77,438.48,709,464.2,688.11,476c-7.77,4.38-16.09,4.6-22.11,4l-63,1q-.29-15.76-1.23-32.42-.46-7.93-1.06-15.67A117.15,117.15,0,0,0,621.8,430c28.77-6.73,32.37-18.91,60-27.33,11.46-3.49,24.06-4.23,34.08-10.78a33.41,33.41,0,0,0,9.36-46.75,27.57,27.57,0,0,1,10.41,17.69c.74,5,1.19,11.77,6.19,12.86,2.84.62,5.64-1.23,7.63-3.34a30.17,30.17,0,0,0,7.49-24c-1.55-12.61-9.79-19.5-6.12-25C751.19,322.91,752.3,321.25,754,321.09Z" transform="translate(-570.25 -116)"/></g><path class="cls-35" d="M702.34,444.55c-6.8-.13-13.39,13.05-13.1,13.09a67.09,67.09,0,0,1,6.21-3.66,7,7,0,0,1,3.44-.84,2.9,2.9,0,0,1,2.28.89c.25.42,0,.87-.24,1.29C697,462,690.24,468.53,681,474.48l8.73-3.69L686.59,480l22.41-.87a26.73,26.73,0,0,0,2.68-6.21C715.24,460.44,709.2,444.69,702.34,444.55Z" transform="translate(-570.25 -116)"/><path class="cls-35" d="M768.94,354.36a110.4,110.4,0,0,1-4.69-44.59,47.43,47.43,0,0,0,16.38,32.76A140.55,140.55,0,0,0,778.22,283,25.7,25.7,0,0,0,789,292.35c-2.1-3.92,2.09-9.43,6.44-8.45-4.39-3.3-2.6-11,2.16-13.72s10.82-1.7,15.9.4c-13,12.27-17.44,30.71-21.9,48s-10.33,35.64-24.74,46.17L767,355" transform="translate(-570.25 -116)"/><path class="cls-35" d="M770.39,354a110.21,110.21,0,0,1-4.64-44.19h-3a49.19,49.19,0,0,0,16.82,33.82,1.51,1.51,0,0,0,2.5-.66,143.4,143.4,0,0,0,.36-47.18q-1.06-6.64-2.77-13.19l-2.74,1.16a27.62,27.62,0,0,0,11.29,9.92,1.51,1.51,0,0,0,2-2.05c-1.41-2.83,1.63-6.84,4.74-6.25,1.3.25,2.75-1.48,1.46-2.51-3.37-2.65-2.2-7.79.61-10.43,4.23-4,11.25-2.3,16-.37l-.66-2.51C802.09,279.37,797,293,793.21,306.44s-6.4,27.11-12.85,39.5a50,50,0,0,1-14.3,17.47l2.26,1.3.16-9.7a1.5,1.5,0,0,0-3,0l-.16,9.7a1.51,1.51,0,0,0,2.26,1.29c11.22-8.27,17.46-21,21.68-34,4.4-13.49,6.68-27.66,12.26-40.77a58.38,58.38,0,0,1,13-19.63,1.52,1.52,0,0,0-.66-2.5c-6-2.43-14.42-3.71-19.34,1.57-3.52,3.77-4.67,10.71-.19,14.25l1.46-2.51c-5.74-1.09-10.74,5.38-8.12,10.65l2.05-2.05a24.77,24.77,0,0,1-10.21-8.84,1.5,1.5,0,0,0-2.74,1.15,139.4,139.4,0,0,1,2.41,58.77l2.51-.66a46.2,46.2,0,0,1-15.94-31.7,1.5,1.5,0,0,0-3,0,112.55,112.55,0,0,0,4.74,45c.59,1.83,3.48,1.05,2.9-.8Z" transform="translate(-570.25 -116)"/><path class="cls-35" d="M733.85,349.57a50.75,50.75,0,0,1,3.35,31.68c-.41,1.88,2.48,2.69,2.89.8a54.25,54.25,0,0,0-3.65-34c-.79-1.75-3.38-.23-2.59,1.52Z" transform="translate(-570.25 -116)"/><path class="cls-35" d="M769.07,311.9l5.59,3.42a1.48,1.48,0,0,0,1.51,0,1.57,1.57,0,0,0,.75-1.3,13.8,13.8,0,0,0-1.95-8.43,1.52,1.52,0,0,0-2.05-.54,1.54,1.54,0,0,0-.54,2.06,8.26,8.26,0,0,1,.51.92,3.78,3.78,0,0,1,.17.35,2.56,2.56,0,0,1,.11.24c-.06-.16-.06-.15,0,0a14,14,0,0,1,.56,1.81c.08.32.13.65.18,1,0-.35,0,.08,0,.12s0,.35,0,.53a12.83,12.83,0,0,1,0,2l2.25-1.29-5.58-3.42a1.51,1.51,0,0,0-2.05.54,1.53,1.53,0,0,0,.53,2Z" transform="translate(-570.25 -116)"/><g class="cls-29"><path class="cls-35" d="M632,481q39-33.36,39.48-32.85T636,481Z" transform="translate(-570.25 -116)"/></g><g class="cls-29"><path class="cls-35" d="M605.8,456.09a11,11,0,0,0,4.54-2.26c4.69-3.9,45.63-20.32,46-19.48.22.49-13.14,7.08-57.33,27.39q.56-3.39,1.13-6.78a6.59,6.59,0,0,0,2.27,1.13A7.07,7.07,0,0,0,605.8,456.09Z" transform="translate(-570.25 -116)"/></g><path class="cls-36" d="M677.2,332.86" transform="translate(-570.25 -116)"/><g class="cls-37"><path class="cls-36" d="M645.89,311.67c-1.23,1,.05,6.24,3.57,8.79s9.15,2.13,14.14-1.16a11.64,11.64,0,0,0,2.27-10.18c-2.52,3-6.19,6.31-10.54,6.2C650.34,315.19,647.18,310.66,645.89,311.67Z" transform="translate(-570.25 -116)"/></g><g class="cls-33"><path class="cls-36" d="M621.67,343a10.59,10.59,0,0,0,.17,1.52c.25,1.3,2,3.88,3.54,3.42s2-1.94,3-3a5.56,5.56,0,0,1,8.64,1.23,23.06,23.06,0,0,0-3.92-7c-1.45-1.58-4.25-3.65-7.18-2.75s-4.18,4.4-4.24,5.43C621.64,342.43,621.67,343,621.67,343Z" transform="translate(-570.25 -116)"/></g><path class="cls-38" d="M659,367.58c-.08-4.29-2.81-8.09-6-11s-6.82-5.29-9.7-8.47c-4.4-4.86-6.65-11.24-8.8-17.43,1.35-.83,1.28-2.77,1-4.33-.8-5.34-2-11.35-6.58-14.25-1.91-1.21-4.18-1.7-6.25-2.63s-4.06-2.56-4.37-4.79a3.61,3.61,0,0,1,5.15,2.37" transform="translate(-570.25 -116)"/><g class="cls-37"><path class="cls-34" d="M694.76,331.17c6.44-14.14,10-24.68,11.08-27.54,2.57-7.06,7.75-17.26,19.27-30.59l23.82,15.33c-14.6,9.12-23.34,24.93-32,39.77s-18.8,30.2-34.56,37.13A221.34,221.34,0,0,1,694,332.84C694.34,332.08,694.36,332.05,694.76,331.17Z" transform="translate(-570.25 -116)"/><path class="cls-34" d="M696.06,331.92q5.73-12.59,10.41-25.61a85.09,85.09,0,0,1,8.41-17.23,131.65,131.65,0,0,1,11.29-15l-1.81.23,23.81,15.34v-2.59c-11.58,7.29-19.6,18.62-26.57,30.14s-13.15,23.6-22.29,33.57A54,54,0,0,1,681.6,364l2.21,1.69a231.26,231.26,0,0,1,12.25-33.74c.8-1.74-1.79-3.27-2.59-1.51a237,237,0,0,0-12.56,34.46,1.52,1.52,0,0,0,2.21,1.69c12.23-5.44,21.17-15.87,28.41-26.82,7.49-11.32,13.39-23.65,21.65-34.46a64,64,0,0,1,16.51-15.61,1.52,1.52,0,0,0,0-2.59l-23.82-15.34a1.51,1.51,0,0,0-1.82.23c-6.46,7.51-12.45,15.59-16.79,24.53-2.64,5.44-4.43,11.25-6.62,16.89s-4.62,11.41-7.17,17C692.68,332.15,695.26,333.68,696.06,331.92Z" transform="translate(-570.25 -116)"/></g><path class="cls-38" d="M623.47,307.27c1.49-1.12,12.71,6.86,16.58,15.9a24.29,24.29,0,0,0,4.12,6,8.47,8.47,0,0,0,6.33,3.14c3.49-.13,6.72-3.28,10-2.24a5.79,5.79,0,0,1,3.58,4.13,17,17,0,0,1,.27,5.66q-.25,4.17-.53,8.36a3.55,3.55,0,0,0,.36,2.26c.76,1.11,2.51,1,3.62.24a34.6,34.6,0,0,0,2.91-2.78c1-.86,2.6-1.38,3.68-.59-7.81,9.44-8.82,15-8.1,18.46.21,1,1,3.76-.47,5.48a4.1,4.1,0,0,1-4.54,1.13c-1.55-.73-2-2.79-2.13-3.39-2.25-9.29-22.43-32.06-27.33-41.83l-2.27-4.52-2.26-4.52C625.63,314.72,622.37,308.1,623.47,307.27Z" transform="translate(-570.25 -116)"/><path class="cls-35" d="M682.53,362.37c-.83-3.14.77-6.49,3.08-8.77s5.26-3.8,8-5.58c10.61-6.93,17.69-18,24.61-28.57s14.36-21.49,25.34-27.83a66.82,66.82,0,0,0-23.66,26.47c-4.21,8.55-6.64,18.1-12.5,25.63-7.8,10-20.75,15.2-28,25.65L683.79,359" transform="translate(-570.25 -116)"/><path class="cls-35" d="M684,362c-1.53-6.61,6.76-10.18,11.06-13.11a61.22,61.22,0,0,0,13.05-12.36c7.72-9.56,13.42-20.55,21.15-30.09a56.4,56.4,0,0,1,15.07-13.49l-1.51-2.59a69.26,69.26,0,0,0-26,30.83c-2.81,6.48-5.05,13.29-8.93,19.24-3.59,5.51-8.75,9.61-13.94,13.53-5.77,4.35-11.63,8.68-15.82,14.68l2.74,1.16,4.36-10.41a1.51,1.51,0,0,0-1-1.84,1.54,1.54,0,0,0-1.85,1L678,369c-.7,1.66,1.84,2.45,2.74,1.15,7.35-10.53,20.13-15.51,27.94-25.65,4.21-5.46,6.69-11.93,9.27-18.26a77.56,77.56,0,0,1,9.81-18,65.15,65.15,0,0,1,16.55-15.3,1.5,1.5,0,0,0-1.51-2.59c-11.07,6.46-18.56,17.16-25.44,27.68S703.39,340,692.48,347c-3,1.94-6.38,3.65-8.73,6.44-2.2,2.63-3.47,5.94-2.67,9.37.44,1.88,3.33,1.08,2.89-.8Z" transform="translate(-570.25 -116)"/><g class="cls-37"><path class="cls-34" d="M681,480c5.47-2.69,15.73-7.6,21.45-9.17.93-.26,3.32-.92,4.21-.58.22.09.7.37-.24,1.55-1.94,2.45-7.85,6.11-11.42,8.2Z" transform="translate(-570.25 -116)"/></g><g class="cls-33"><path class="cls-36" d="M665.87,336.25c-.37,2.66-.13.31-.52,13,0,.94,0,2.13.68,2.66,1.25,1,3-.41,3.92-1.69,2.94-4,3.1-6.93,5.87-7.89,1.62-.57,3.26.2,3.62-.4l0,0a.65.65,0,0,1,0-.11l0,.11a2.72,2.72,0,0,0,0-1.13c-.15-.45-.48-.58-1.14-1.13a13.06,13.06,0,0,1-1.13-1.13h0l-2.27-2.27L672.67,334l-3.4-3.39L667,328.34C666.73,330.17,666.33,332.91,665.87,336.25Z" transform="translate(-570.25 -116)"/></g><path class="cls-35" d="M650,370.13a33,33,0,0,0-4,3.73,33.64,33.64,0,0,0-3.34,4.32,49.32,49.32,0,0,1,26.35-.44,82,82,0,0,0-8.21-4.74,25.07,25.07,0,0,0-5.67-2.27A22,22,0,0,0,650,370.13Z" transform="translate(-570.25 -116)"/><path class="cls-35" d="M648.92,369.07a35.5,35.5,0,0,0-7.58,8.36,1.51,1.51,0,0,0,1.69,2.2,48.38,48.38,0,0,1,25.55-.45,1.51,1.51,0,0,0,1.16-2.74c-6-3.87-12.45-7.79-19.76-7.81a1.5,1.5,0,0,0,0,3c6.74,0,12.77,3.84,18.24,7.4l1.16-2.74a51.48,51.48,0,0,0-27.15.45l1.7,2.2a33.17,33.17,0,0,1,7.11-7.75C652.55,370,650.41,367.88,648.92,369.07Z" transform="translate(-570.25 -116)"/><path class="cls-38" d="M617.14,308c-1.89-5.52-3.64-10.84-2.27-17,.21-.93,1-4.46,2.27-4.52.79,0,1.45,1.31,2.31,3.34,3.92,9.22,4.09,14.14,6.75,18.14a8.79,8.79,0,0,1,1.14,2.26,9.88,9.88,0,0,1,0,5.66c-1.7-.11-5.4-.59-7.94-3.4C618.57,311.6,618,310.62,617.14,308Z" transform="translate(-570.25 -116)"/><path class="cls-39" d="M611.47,377a21.59,21.59,0,0,0-9.06-9c-5.15-2.52-7.87-.78-12.47-2.26-9.13-2.95-13.11-14.57-15.87-22.61-1.69-5-5-14.58-3.4-23.74,2.93-16.85,22.24-31,47.6-35.05a25.63,25.63,0,0,0-3.4,12.44,18.51,18.51,0,0,0,2.27,10.17c3.35,5.63,10,9.5,12.46,7.91.67-.43.61-1,1.14-1.13,2.4-.5,8.76,10.75,5.66,14.7-1.55,2-4.2.41-7.93,2.26-5.59,2.78-7.45,9.53-7.93,11.31-2.47,9,3,20.22,13.6,28.26Z" transform="translate(-570.25 -116)"/><g class="cls-40"><path class="cls-41" d="M612.22,373.56c-3.21-5.44-10-9.84-13.85-12.32a6.73,6.73,0,0,1-2.3-2.7,2.94,2.94,0,0,1,.43-3.31c1.12-1,3-.6,4.29.15s2.64,1.79,4.18,1.79c2.81,0,4.37-3.47,4.06-6.26s-1.74-5.4-1.81-8.21c-.11-4.32,3.09-8.18,6.95-10.16s8.28-2.44,12.59-2.88a28,28,0,0,0-6.64,5.75c-1.76,2.35-2.75,5.48-1.85,8.27.79,2.45,2.83,4.23,4.61,6.09,3.86,4,3.09,6,9.21,16.86.89,1.57,1.62,2.83,2,3.54a26.56,26.56,0,0,1-3.4,1.13c-2.3.59-3.34.53-5.67,1.13a32.71,32.71,0,0,0-3.4,1.13c-2,.73-4.68,1.82-7.93,3.39A17.35,17.35,0,0,0,612.22,373.56Z" transform="translate(-570.25 -116)"/></g><g class="cls-40"><path class="cls-41" d="M570.67,332.86a31.46,31.46,0,0,0,5.25-3.43c11.59-9.36,15.83-26.8,23.48-33.59,1.22-1.08,2.71-2.15,4.31-1.88,1.77.31,2.82,2.08,3.63,3.67l3.9,7.63c.47.91,1.35,2,2.28,1.56.54-.25.74-1.07.87-1.78a36.24,36.24,0,0,0,.48-7.22c-.16-3.68-.29-4.23,0-5.66a18.74,18.74,0,0,1,1.13-3.39,33.93,33.93,0,0,1,2.27-4.52,76.22,76.22,0,0,0-17,4.52c-4.19,1.66-19.22,7.61-26.06,19.22a34.85,34.85,0,0,0-3.4,7.92,43.67,43.67,0,0,0-1.14,10.17C570.57,328.88,570.61,331.21,570.67,332.86Z" transform="translate(-570.25 -116)"/></g></svg>